<svg width="23" height="23" viewBox="0 0 23 23" fill="none" xmlns="http://www.w3.org/2000/svg">
<g clip-path="url(#clip0)">
<path d="M11.5 0C5.1589 0 0 5.1589 0 11.5C0 17.8411 5.1589 23 11.5 23C17.8411 23 23 17.8411 23 11.5C23 5.1589 17.8411 0 11.5 0ZM11.5 20.553C6.50822 20.553 2.44677 16.492 2.44677 11.5C2.44677 6.50799 6.50822 2.447 11.5 2.447C16.4918 2.447 20.5532 6.50799 20.5532 11.5C20.5532 16.492 16.4918 20.553 11.5 20.553Z" fill="#829FBA" stroke="white" stroke-width="0.5"/>
<path d="M17.4936 11.1449H12.3254V4.9309C12.3254 4.40798 11.9015 3.98401 11.3785 3.98401C10.8556 3.98401 10.4316 4.40798 10.4316 4.9309V12.0918C10.4316 12.6147 10.8556 13.0387 11.3785 13.0387H17.4936C18.0165 13.0387 18.4405 12.6147 18.4405 12.0918C18.4405 11.5688 18.0165 11.1449 17.4936 11.1449Z" fill="#829FBA"/>
</g>
<defs>
<clipPath id="clip0">
<rect width="23" height="23" fill="white"/>
</clipPath>
</defs>
</svg>
