<svg width="22" height="22" viewBox="0 0 22 22" fill="none" xmlns="http://www.w3.org/2000/svg">
<path d="M18.7782 3.22749C16.7005 1.14987 13.9382 0.0057373 11 0.0057373C9.22891 0.0057373 7.46844 0.436843 5.90885 1.25252C5.00955 1.72281 4.17618 2.32158 3.4375 3.02081V0.0057373H1.71875V6.02136H7.73438V4.30261H4.58313C6.29703 2.66658 8.59689 1.72449 11 1.72449C16.1177 1.72449 20.2812 5.88799 20.2812 11.0057C20.2812 11.2907 20.2682 11.5779 20.2425 11.8595L21.9542 12.0154C21.9846 11.6822 22 11.3426 22 11.0058L21.1406 11.0057H22C22 8.06749 20.8558 5.3052 18.7782 3.22749Z" fill="#1786EC"/>
<path d="M4.28841 17.4161C3.98821 17.1019 3.4951 17.0462 3.15674 17.3188L3.10025 17.3644C2.73072 17.6622 2.67032 18.2058 2.99595 18.551C3.02899 18.5861 3.06227 18.6209 3.09576 18.6555C3.42586 18.9965 3.97162 18.961 4.28598 18.6054L4.33407 18.551C4.62188 18.2254 4.58859 17.7303 4.28841 17.4161Z" fill="#1786EC"/>
<path d="M2.53615 14.8203C2.35748 14.4245 1.91162 14.2083 1.50206 14.3527L1.43311 14.377C0.985459 14.5347 0.747453 15.0272 0.939902 15.4611C0.959704 15.5057 0.979806 15.5502 1.0002 15.5946C1.1984 16.0258 1.72514 16.1731 2.13955 15.9417L2.20338 15.9061C2.58255 15.6944 2.71483 15.2161 2.53615 14.8203Z" fill="#1786EC"/>
<path d="M1.75176 11.7932C1.71542 11.3603 1.36654 11.0057 0.932058 11.0057H0.859375C0.384755 11.0057 -0.00340596 11.3911 0.0331985 11.8643C0.0368972 11.9121 0.0409036 11.9599 0.045217 12.0076C0.0879283 12.4803 0.535055 12.7952 1.00297 12.7157L1.0746 12.7036C1.50296 12.6308 1.78811 12.2262 1.75176 11.7932Z" fill="#1786EC"/>
<path d="M6.8008 19.2849C6.41396 19.0883 5.93042 19.1984 5.7017 19.5672L5.66288 19.6298C5.41274 20.0331 5.5356 20.566 5.95727 20.7839C6.0002 20.8061 6.04328 20.828 6.0865 20.8496C6.51097 21.0619 7.01388 20.8469 7.1922 20.4071L7.21985 20.3389C7.38291 19.9367 7.18767 19.4816 6.8008 19.2849Z" fill="#1786EC"/>
<path d="M20.7274 13.608C20.308 13.4961 19.8805 13.7466 19.7333 14.1549C19.586 14.5631 19.7551 15.0291 20.1494 15.2106L20.2161 15.2414C20.6473 15.4399 21.1611 15.2521 21.325 14.8067C21.3419 14.761 21.3584 14.7152 21.3746 14.6693C21.5326 14.2218 21.257 13.7494 20.7984 13.627L20.7274 13.608Z" fill="#1786EC"/>
<path d="M16.9458 19.1311C16.689 18.7807 16.1979 18.7083 15.8271 18.9346C15.4563 19.1608 15.2969 19.6302 15.491 20.0188L15.5235 20.084C15.7355 20.5087 16.2536 20.6838 16.6604 20.4392C16.702 20.4142 16.7434 20.3889 16.7847 20.3634C17.1882 20.1135 17.2695 19.5726 16.9889 19.1898L16.9458 19.1311Z" fill="#1786EC"/>
<path d="M19.3091 16.6923C18.9508 16.4466 18.4637 16.54 18.1887 16.8763C17.9136 17.2127 17.9185 17.709 18.2305 18.0114L18.2827 18.062C18.6235 18.3923 19.1704 18.3857 19.4732 18.0202C19.5039 17.9832 19.5344 17.9459 19.5646 17.9085C19.8627 17.5391 19.7605 17.0018 19.369 16.7334L19.3091 16.6923Z" fill="#1786EC"/>
<path d="M13.9065 20.6469C13.7814 20.2313 13.3439 19.999 12.9191 20.0883C12.4944 20.1775 12.1864 20.5664 12.2393 20.9972L12.2482 21.0701C12.3061 21.5412 12.7358 21.8796 13.201 21.7851C13.2486 21.7754 13.2961 21.7654 13.3436 21.7551C13.8074 21.6544 14.0644 21.1717 13.9277 20.7173L13.9065 20.6469Z" fill="#1786EC"/>
<path d="M9.78794 20.2085C9.35734 20.1524 8.93984 20.4183 8.84741 20.8426L8.83185 20.914C8.73082 21.3777 9.02471 21.839 9.49496 21.9034C9.54274 21.9099 9.59058 21.9162 9.63846 21.9221C10.1095 21.9803 10.512 21.61 10.5334 21.1358L10.5367 21.0629C10.5564 20.629 10.2186 20.2647 9.78794 20.2085Z" fill="#1786EC"/>
</svg>
