<svg viewBox="0 0 24 24" xmlns="http://www.w3.org/2000/svg"><path d="m18.5 9.31-.454-.406-3.67 3.1c-.675-.138-1.4.068-1.89.618-.736.823-.667 2.09.157 2.82.823.735 2.09.665 2.82-.159.495-.55.618-1.3.405-1.95zm-6.55-9.31h4v2.69c-1.44-.243-2.59-.238-4 0zm8.85 4.76 1.41-1.41 1.41 1.41-1.32 1.32c-.463-.484-.965-.927-1.5-1.33zm-18.9 4.24h8v2h-8zm-2 4h8v2h-8zm3 4h7v2h-7zm11 7c-2.79 0-5.3-1.16-7.11-3h3.28c1.14.631 2.44 1 3.83 1 4.41 0 8-3.59 8-8s-3.59-8-8-8c-1.39 0-2.69.369-3.83 1h-3.28c1.81-1.84 4.32-3 7.11-3 5.52 0 10 4.48 10 10s-4.48 10-10 10z" fill="#fff"/></svg>