<svg viewBox="0 0 41 41" xmlns="http://www.w3.org/2000/svg"><g fill="none" stroke="#fff" stroke-linecap="round" stroke-linejoin="round" stroke-width="2.7"><path d="m38.7 22.2c-.124-.489-.196-1.23-.195-1.94-.000957-.675.0623-1.35.172-1.81.315-1.43.784-2.99.939-4.39-.0028-.65-.176-1.29-.477-1.86-.303-.569-.739-1.07-1.3-1.42l-3.2-1.93c-.42-.251-.968-.698-1.47-1.19-.499-.49-.952-1.03-1.21-1.45l-1.97-3.18c-.348-.557-.853-.986-1.42-1.27-.566-.295-1.2-.464-1.84-.464-1.47.141-2.95.628-4.42.993-.491.122-1.23.196-1.95.194-.675.00191-1.35-.0632-1.81-.171-1.44-.317-2.98-.779-4.39-.937-.651.000957-1.29.175-1.86.477-.57.303-1.07.737-1.42 1.3l-1.94 3.2c-.252.418-.698.967-1.19 1.46-.49.499-1.03.952-1.45 1.21l-3.18 1.97c-.559.348-.987.852-1.28 1.42-.295.566-.463 1.2-.464 1.84.139 1.47.628 2.95.994 4.42.122.49.195 1.23.194 1.95.00187.674-.0623 1.35-.171 1.81-.315 1.43-.784 2.99-.939 4.39.00186.652.176 1.29.478 1.86.303.569.738 1.07 1.3 1.42l3.2 1.93c.419.252.968.698 1.47 1.19.498.49.951 1.03 1.21 1.46l1.97 3.18c.348.558.853.986 1.42 1.28.566.294 1.2.462 1.84.463 1.47-.141 2.95-.628 4.42-.993.49-.123 1.23-.196 1.95-.194.675-.000954 1.35.0623 1.81.171 1.44.317 2.98.779 4.39.938.652-.000955 1.29-.176 1.86-.477.568-.303 1.07-.738 1.42-1.3l1.94-3.2c.251-.419.698-.967 1.19-1.46.49-.498 1.03-.952 1.45-1.21l3.18-1.97c.559-.347.977-.852 1.27-1.42.294-.566.462-1.2.463-1.84-.137-1.51-.62-2.98-.981-4.45zm-13.4-5.18-5.57 6.87-3.98-3.28"/><circle cx="20.5" cy="20.5" r="13.9"/></g></svg>