<svg viewBox="0 0 82.187 61.4" xmlns="http://www.w3.org/2000/svg"><path d="m53.2 11.8c-4.48 0-8.73 1.57-12.1 4.42-3.28-2.75-7.51-4.42-12.1-4.42-10.4 0-18.9 8.48-18.9 18.9-.005 10.4 8.47 18.9 18.9 18.9h.001c4.61-.005 8.84-1.67 12.1-4.43 3.39 2.86 7.64 4.43 12.1 4.43h.022c4.98-.003 9.68-1.93 13.2-5.42 7.44-7.31 7.54-19.3.238-26.7-3.58-3.65-8.38-5.66-13.5-5.66zm-8.56 18.9c-.005 8.64-7.04 15.7-15.7 15.7-8.65 0-15.7-7.04-15.7-15.7-.005-8.48 6.75-15.4 15.2-15.7h.525c8.65.005 15.7 7.05 15.7 15.7zm3.22.001c0-4.66-1.7-8.92-4.51-12.2 2.78-2.25 6.23-3.48 9.86-3.48 4.14 0 8.05 1.6 11 4.5 2.99 2.94 4.65 6.87 4.69 11.1s-1.57 8.15-4.51 11.1c-2.97 3.02-6.95 4.69-11.2 4.69-3.63 0-7.07-1.23-9.86-3.48 2.8-3.3 4.5-7.56 4.51-12.2zm5.33 18.2zm21.9-48.9h-68.1c-3.89 0-7.05 3.16-7.05 7.05v47.3c0 3.89 3.16 7.06 7.05 7.06h68.1c3.89 0 7.06-3.16 7.06-7.06v-47.3c0-3.89-3.17-7.05-7.06-7.05zm0 58.2h-68.1c-2.12 0-3.84-1.72-3.84-3.84v-47.3c0-2.12 1.72-3.84 3.84-3.84l68.1.009c2.12 0 3.84 1.72 3.84 3.84v47.3c0 2.12-1.72 3.84-3.84 3.84z" fill="#22d5da"/></svg>