<svg viewBox="0 0 61.4 61.4" xmlns="http://www.w3.org/2000/svg"><path d="m30.7 16.1c-8.06 0-14.6 6.56-14.6 14.6 0 8.06 6.56 14.6 14.6 14.6s14.6-6.56 14.6-14.6-6.56-14.6-14.6-14.6zm0 25.4c-5.95 0-10.8-4.84-10.8-10.8s4.84-10.8 10.8-10.8 10.8 4.84 10.8 10.8-4.84 10.8-10.8 10.8zm-27.5-19.6l.125.05h.045c.113.046.309.121.573.121.847 0 1.54-.479 1.75-1.2 1.49-3.59 3.51-6.68 6-9.17.366-.367.568-.843.568-1.34 0-.5-.202-.976-.568-1.34-.733-.733-1.95-.732-2.68 0-2.97 2.97-5.3 6.51-6.93 10.5-.192.479-.165.994.077 1.45.216.407.586.73 1.04.912zm55.6-3.45c-.377-.944-1.56-1.48-2.48-1.12-.475.189-.835.565-1.02 1.06-.17.46-.162.966.033 1.45 1.48 3.31 2.24 6.92 2.24 10.7v.12c0 1.11.803 1.91 1.91 1.91s1.91-.804 1.91-1.91c0-4.31-.876-8.44-2.59-12.2zm-18.3-12.8c3.61 1.5 6.71 3.52 9.21 6.02.345.346.872.569 1.34.569.47 0 .996-.223 1.34-.568.366-.366.568-.843.568-1.34 0-.499-.202-.976-.568-1.34-2.97-2.97-6.51-5.3-10.5-6.93-.923-.368-2.11.171-2.48 1.12-.382.951.129 2.09 1.11 2.48zm-21.3.537c.171 0 .543 0 .852-.219 3.33-1.48 6.81-2.2 10.6-2.2 1.11 0 1.91-.803 1.91-1.91-.001-1.05-.858-1.91-1.91-1.91-4.25 0-8.5.9-12.2 2.59-.474.189-.835.565-1.02 1.06-.169.46-.162.966-.007 1.33.188.752.898 1.26 1.77 1.26zm1.72 49.5c-3.61-1.5-6.71-3.52-9.21-6.02-.732-.732-1.95-.732-2.68 0-.367.366-.568.843-.568 1.34 0 .498.202.975.568 1.34 2.97 2.97 6.51 5.3 10.5 6.93l.127.052h.048c.113.046.308.121.573.121.869 0 1.58-.504 1.78-1.31.188-1.12-.277-2.11-1.15-2.46zm37.3-16.2c-.998-.397-2.16.143-2.48 1.11-1.49 3.61-3.52 6.71-6.02 9.21-.366.366-.568.844-.568 1.34 0 .498.202.976.569 1.34.346.344.872.566 1.34.566.527 0 .954-.18 1.33-.558 2.9-2.78 5.23-6.32 6.94-10.5l.038-.126c.174-.874-.166-1.97-1.15-2.36zm-54.4-8.78c0-1.11-.804-1.91-1.91-1.91-1.05 0-1.91.856-1.91 1.91 0 4.26.9 8.5 2.61 12.3.359.717.969 1.11 1.72 1.11.171 0 .542 0 .851-.218.87-.417 1.27-1.48.884-2.44-1.51-3.65-2.24-7.16-2.24-10.7zm37.6 24.6c-3.65 1.51-7.16 2.24-10.7 2.24h-.634l-.006.063c-.831.209-1.39.922-1.39 1.85 0 1.05.857 1.91 1.91 1.91 4.15 0 8.39-.856 12.2-2.47.441-.176.79-.519.981-.966.195-.453.209-.977.042-1.45-.215-1.03-1.34-1.61-2.4-1.18z" fill="#22d5da"/></svg>