<svg viewBox="0 0 227 227" xmlns="http://www.w3.org/2000/svg"><circle cx="114" cy="114" r="114" fill="#fff"/><path d="m114 173c-2.35 0-4.69-.891-6.49-2.67-3.32-3.29-6.57-6.48-9.74-9.57-23.5-23-42.1-41.2-42.1-61.8.005-22.5 18-34.6 34.9-34.6 8.84 0 17 3.03 23.5 8.42 6.4-5.36 14.6-8.36 23.4-8.36 9 0 17.5 3.14 23.9 8.84 7.13 6.35 11 15.5 11 25.7-.009 20.6-18.6 38.7-42.2 61.7-3.17 3.09-6.43 6.28-9.74 9.57-1.8 1.78-4.14 2.67-6.49 2.67zm-23.4-90.1c-6.13 0-16.5 3.4-16.5 16.2-.003 12.8 17 29.4 36.6 48.6 1.11 1.08 2.22 2.17 3.35 3.28 1.13-1.1 2.25-2.2 3.35-3.28 19.6-19.2 36.6-35.7 36.6-48.6.002-5.04-1.64-9.06-4.88-12-2.97-2.65-7.2-4.17-11.6-4.17-3.14 0-10.9.846-15.5 8.69-1.65 2.83-4.68 4.57-7.96 4.57s-6.31-1.74-7.96-4.57c-4.6-7.89-12.4-8.74-15.5-8.74z" fill="#fcb4d9"/></svg>