<svg viewBox="0 0 607 232" xmlns="http://www.w3.org/2000/svg"><g fill="#fff"><path d="m607 209c0 12.7-10.3 23-23 23h-561c-12.7 0-23-10.3-23-23v-186c0-12.7 10.3-23 23-23h561c12.7 0 23 10.3 23 23v186z"/><path d="m184 165c0 10.5-8.51 19-19 19h-100c-10.5 0-19-8.51-19-19v-100c0-10.5 8.51-19 19-19h100c10.5 0 19 8.51 19 19v100z" fill="#E7BDF9"/><path d="m115 102c-5.9-10.1-22.5-7.17-22.5 5.52 0 8.74 10.4 17.7 22.5 29.6 12-12 22.5-20.9 22.5-29.6-.002-12.7-16.6-15.6-22.5-5.52z"/></g><path d="m508 136c-1.87-.414-3.51-1.08-4.92-1.99-.623-.373-1.1-.871-1.43-1.49-.332-.623-.498-1.33-.498-2.12 0-.954.27-1.75.809-2.4.539-.643 1.2-.965 1.99-.965.539 0 1.08.093 1.62.28s1.1.405 1.68.654c1.16.54 2.3.964 3.42 1.28 1.12.311 2.51.467 4.17.467 1.45 0 2.58-.228 3.39-.685.809-.456 1.21-1.08 1.21-1.87 0-.581-.176-1.05-.529-1.4-.352-.352-1.01-.674-1.96-.965-.955-.29-2.47-.643-4.54-1.06-3.69-.705-6.35-1.76-7.97-3.17-1.62-1.41-2.43-3.38-2.43-5.91 0-1.87.57-3.55 1.71-5.04s2.71-2.67 4.7-3.52 4.23-1.28 6.72-1.28c1.78 0 3.52.229 5.23.685 1.7.457 3.22 1.1 4.54 1.93 1.29.789 1.93 1.95 1.93 3.48 0 .996-.27 1.83-.809 2.49-.539.665-1.2.996-1.99.996-.955 0-2.1-.374-3.42-1.12-1.04-.539-1.98-.943-2.83-1.21-.852-.27-1.86-.405-3.02-.405-1.28 0-2.3.239-3.05.716-.746.478-1.12 1.13-1.12 1.96 0 .872.436 1.54 1.31 1.99.871.457 2.55.913 5.04 1.37 2.78.54 4.96 1.19 6.53 1.96 1.58.768 2.72 1.73 3.42 2.89.705 1.16 1.06 2.64 1.06 4.42 0 2.95-1.22 5.29-3.64 7.03-2.43 1.74-5.68 2.61-9.74 2.61-2.53.001-4.73-.208-6.6-.622zm-11.6-7.97c.518.665.777 1.52.777 2.55 0 .706-.207 1.36-.623 1.96-.414.602-.994 1.11-1.74 1.52-1.41.747-3.05 1.36-4.92 1.84s-3.59.716-5.17.716c-3.32 0-6.21-.643-8.68-1.93-2.47-1.28-4.37-3.12-5.7-5.51-1.33-2.38-1.99-5.2-1.99-8.43 0-3.11.643-5.87 1.93-8.28 1.29-2.41 3.07-4.28 5.35-5.63 2.28-1.35 4.88-2.02 7.78-2.02 2.78 0 5.22.613 7.31 1.84 2.1 1.22 3.72 2.97 4.88 5.23 1.16 2.26 1.74 4.91 1.74 7.94 0 .913-.219 1.61-.654 2.08-.436.477-1.05.715-1.84.715h-17.4c.289 2.45 1.04 4.22 2.24 5.32 1.2 1.1 2.93 1.65 5.17 1.65 1.2 0 2.28-.145 3.24-.436.953-.29 2.01-.685 3.17-1.18.58-.249 1.14-.467 1.68-.654s1.02-.28 1.43-.28c.83.003 1.5.335 2.02.998zm-17-15c-1.08 1.14-1.72 2.79-1.93 4.95h12c-.125-2.2-.676-3.86-1.65-4.98s-2.35-1.68-4.14-1.68c-1.78-.001-3.22.57-4.29 1.71zm-13.7 19c0 1.16-.426 2.2-1.28 3.11-.852.914-1.84 1.37-2.96 1.37-1.08 0-2.07-.436-2.99-1.31l-13.6-12.6v9.52c0 1.45-.447 2.55-1.34 3.3-.893.746-2 1.12-3.33 1.12-1.37 0-2.5-.373-3.39-1.12-.893-.747-1.34-1.85-1.34-3.3v-35.7c0-1.45.445-2.55 1.34-3.3s2.02-1.12 3.39-1.12c1.33 0 2.44.374 3.33 1.12.893.747 1.34 1.85 1.34 3.3v22.3l12.4-12.3c.912-.912 1.93-1.37 3.05-1.37 1.16 0 2.18.426 3.05 1.28.871.851 1.31 1.86 1.31 3.02 0 1.08-.477 2.1-1.43 3.05l-8.28 7.9 9.27 8.59c.955.913 1.43 1.95 1.43 3.11zm-46.1-33.3c-.955-.85-1.43-2-1.43-3.45 0-1.45.477-2.59 1.43-3.42.954-.83 2.26-1.24 3.92-1.24 1.62 0 2.91.426 3.89 1.28.975.851 1.46 1.98 1.46 3.39 0 1.45-.477 2.6-1.43 3.45-.955.851-2.26 1.28-3.92 1.28-1.66 0-2.97-.425-3.92-1.28zm.529 36.7c-.893-.747-1.34-1.84-1.34-3.3v-22.7c0-1.45.456-2.55 1.37-3.3.912-.747 2.03-1.12 3.36-1.12 1.33 0 2.44.374 3.33 1.12.893.747 1.34 1.85 1.34 3.3v22.7c0 1.45-.447 2.55-1.34 3.3s-2 1.12-3.33 1.12c-1.37 0-2.5-.373-3.39-1.12zm-16.6 0c-.893-.747-1.34-1.84-1.34-3.3v-35.7c0-1.45.445-2.55 1.34-3.3.892-.747 2.02-1.12 3.39-1.12 1.33 0 2.44.374 3.33 1.12.892.747 1.34 1.85 1.34 3.3v35.7c0 1.45-.446 2.55-1.34 3.3-.894.747-2 1.12-3.33 1.12-1.37 0-2.5-.373-3.39-1.12zm-23.6-3.17c0 2.61-1.52 3.92-4.54 3.92h-21.3c-3.07 0-4.6-1.31-4.6-3.92 0-2.57 1.54-3.86 4.6-3.86h5.79v-25.5l-5.48 3.3c-.622.374-1.24.56-1.87.56-1.04 0-1.92-.436-2.65-1.31-.727-.872-1.09-1.85-1.09-2.92 0-1.45.644-2.55 1.93-3.3l9.83-5.91c1.45-.871 2.9-1.31 4.36-1.31 1.37 0 2.49.426 3.36 1.28.871.851 1.31 2 1.31 3.45v31.6h5.79c3.03.001 4.54 1.29 4.54 3.86zm-38.2 0c0 2.61-1.54 3.92-4.6 3.92h-23.2c-1.29 0-2.31-.383-3.08-1.15-.768-.767-1.15-1.73-1.15-2.89 0-1.49.601-2.86 1.8-4.11l13.7-14.5c3.07-3.24 4.6-6.22 4.6-8.96 0-1.7-.479-3-1.43-3.89-.955-.892-2.34-1.34-4.17-1.34-1.58 0-3.03.271-4.36.809-1.33.54-2.86 1.33-4.6 2.36-.706.416-1.24.706-1.62.872s-.809.249-1.31.249c-.871 0-1.62-.405-2.24-1.21-.623-.809-.934-1.75-.934-2.83 0-.788.134-1.44.404-1.96s.715-.985 1.34-1.4c1.87-1.37 4.01-2.46 6.44-3.27 2.43-.809 4.86-1.21 7.31-1.21 2.94 0 5.53.498 7.75 1.49s3.93 2.42 5.14 4.26c1.2 1.85 1.8 3.97 1.8 6.38 0 2.53-.529 4.88-1.59 7.03s-2.83 4.56-5.32 7.22l-9.77 10.3h14.4c3.07 0 4.6 1.29 4.6 3.86zm-40.7-14.8c1.39 1.85 2.08 4.1 2.08 6.75 0 2.53-.654 4.73-1.96 6.6-1.31 1.87-3.18 3.31-5.63 4.32-2.45 1.02-5.29 1.52-8.53 1.52-2.7 0-5.28-.395-7.75-1.18s-4.6-1.89-6.38-3.3c-.623-.457-1.07-.955-1.34-1.49-.27-.539-.404-1.16-.404-1.87 0-1.08.311-2 .934-2.77.622-.767 1.37-1.15 2.24-1.15.498 0 .954.073 1.37.218.415.146.934.404 1.56.778 1.82 1.04 3.4 1.83 4.73 2.36 1.33.54 2.88.809 4.67.809 2.53 0 4.38-.467 5.54-1.4 1.16-.934 1.74-2.4 1.74-4.39 0-1.95-.602-3.36-1.8-4.23-1.2-.872-3.13-1.31-5.79-1.31h-3.67c-1.08 0-1.93-.374-2.55-1.12-.623-.747-.934-1.64-.934-2.68 0-.996.311-1.87.934-2.61.622-.747 1.47-1.12 2.55-1.12h2.61c2.53 0 4.41-.436 5.63-1.31 1.22-.872 1.84-2.22 1.84-4.04 0-1.74-.519-3.1-1.56-4.08-1.04-.974-2.49-1.46-4.36-1.46-1.54 0-2.97.271-4.29.809-1.33.54-2.86 1.33-4.6 2.36-.623.374-1.14.633-1.56.778-.415.146-.871.218-1.37.218-.871 0-1.62-.383-2.24-1.15-.623-.767-.934-1.69-.934-2.77 0-.747.134-1.38.404-1.9.27-.518.716-1 1.34-1.46 1.74-1.41 3.83-2.51 6.25-3.3s4.91-1.18 7.44-1.18c2.94 0 5.54.488 7.78 1.46 2.24.976 3.96 2.36 5.17 4.14 1.2 1.78 1.8 3.86 1.8 6.22s-.613 4.43-1.84 6.19c-1.22 1.76-2.92 3.04-5.07 3.83 2.57.747 4.55 2.04 5.94 3.89zm-36.2 10.1c.996 1.18 1.49 2.89 1.49 5.14 0 4.31-1.56 8.09-4.67 11.3-.622.622-1.29.934-1.99.934-.706 0-1.32-.24-1.84-.717-.52-.477-.778-1.05-.778-1.71 0-.622.228-1.16.685-1.62 1.37-1.41 2.28-2.99 2.74-4.73-1.41-.125-2.55-.643-3.42-1.56-.871-.912-1.31-2.07-1.31-3.48 0-1.54.487-2.81 1.46-3.83.975-1.02 2.19-1.52 3.64-1.52 1.66-.002 2.99.59 3.98 1.77zm-14.1 4.64c0 2.61-1.54 3.92-4.6 3.92h-23.2c-1.29 0-2.31-.383-3.08-1.15-.768-.767-1.15-1.73-1.15-2.89 0-1.49.601-2.86 1.8-4.11l13.7-14.5c3.07-3.24 4.6-6.22 4.6-8.96 0-1.7-.478-3-1.43-3.89-.955-.892-2.34-1.34-4.17-1.34-1.58 0-3.03.271-4.36.809-1.33.54-2.86 1.33-4.6 2.36-.706.416-1.24.706-1.62.872-.374.166-.809.249-1.31.249-.871 0-1.62-.405-2.24-1.21-.623-.809-.934-1.75-.934-2.83 0-.788.134-1.44.404-1.96s.716-.985 1.34-1.4c1.87-1.37 4.01-2.46 6.44-3.27 2.43-.809 4.86-1.21 7.31-1.21 2.95 0 5.53.498 7.75 1.49 2.22.996 3.93 2.42 5.13 4.26 1.2 1.85 1.8 3.97 1.8 6.38 0 2.53-.529 4.88-1.59 7.03s-2.83 4.56-5.32 7.22l-9.77 10.3h14.4c3.07 0 4.6 1.29 4.6 3.86z" fill="#eee"/></svg>