<svg viewBox="0 0 17 13" xmlns="http://www.w3.org/2000/svg"><path d="m1.7 0c-.937 0-1.7.73-1.7 1.62v4.88c0 .895.762 1.62 1.7 1.62h7.65v-1.62h-7.65v-4.88h13.6v1.62h1.7v-1.62c0-.895-.761-1.62-1.7-1.62zm2.55 2.44c-.939 0-1.7.728-1.7 1.62s.76 1.62 1.7 1.62c.939 0 1.7-.728 1.7-1.62s-.76-1.62-1.7-1.62zm4.25 0c-.939 0-1.7.728-1.7 1.62s.76 1.62 1.7 1.62c.939 0 1.7-.728 1.7-1.62s-.76-1.62-1.7-1.62zm5.53 2.44c-1.17 0-2.12.912-2.12 2.03v.406c-.469 0-.85.365-.85.812v4.06c0 .448.38.812.85.812h4.25c.469 0 .85-.364.85-.812v-4.06c0-.448-.38-.812-.85-.812v-.406c0-1.12-.954-2.03-2.12-2.03zm0 1.62c.235 0 .424.183.424.406v.406h-.85v-.406c0-.223.191-.406.426-.406zm-1.28 2.44h2.55v2.44h-2.55z" fill="#cfd9e6"/></svg>