<svg viewBox="0 0 811 232" xmlns="http://www.w3.org/2000/svg"><path d="m811 209c0 12.7-10.3 23-23 23h-765c-12.7 0-23-10.3-23-23v-186c0-12.7 10.3-23 23-23h765c12.7 0 23 10.3 23 23v186z" fill="#fff"/><path d="m117 172c-2.35 0-4.69-.892-6.49-2.67-3.32-3.29-6.57-6.48-9.74-9.57-23.5-23-42.1-41.2-42.1-61.8.005-22.5 18-34.6 34.9-34.6 8.84 0 17 3.03 23.5 8.42 6.4-5.36 14.6-8.36 23.4-8.36 9 0 17.5 3.14 23.9 8.84 7.13 6.35 11 15.5 11 25.7-.01 20.6-18.6 38.7-42.2 61.7-3.17 3.09-6.43 6.28-9.74 9.57-1.8 1.78-4.14 2.67-6.49 2.67zm-23.4-90.1c-6.14 0-16.5 3.4-16.5 16.2-.003 12.8 17 29.4 36.6 48.6 1.11 1.08 2.22 2.17 3.35 3.28 1.13-1.1 2.25-2.2 3.35-3.28 19.6-19.2 36.6-35.7 36.6-48.6.002-5.04-1.64-9.06-4.88-12-2.97-2.65-7.2-4.17-11.6-4.17-3.14 0-10.9.847-15.5 8.69-1.65 2.83-4.68 4.57-7.96 4.57-3.28 0-6.31-1.74-7.96-4.57-4.6-7.89-12.4-8.74-15.5-8.74z" fill="#B2E4F9"/><path d="m305 133c-2.8-3.86-4.2-9.44-4.2-16.7 0-7.26 1.4-12.8 4.2-16.7 2.8-3.86 6.86-5.79 12.2-5.79 5.31 0 9.37 1.93 12.2 5.79s4.2 9.42 4.2 16.7c0 7.3-1.4 12.9-4.2 16.7-2.8 3.86-6.86 5.79-12.2 5.79-5.31 0-9.37-1.93-12.2-5.79zm17.4-5.23c1.1-2.4 1.65-6.24 1.65-11.5 0-5.31-.55-9.15-1.65-11.5-1.1-2.36-2.85-3.55-5.26-3.55-2.41 0-4.16 1.19-5.26 3.58-1.1 2.39-1.65 6.21-1.65 11.5 0 5.27.549 9.11 1.65 11.5 1.1 2.41 2.85 3.61 5.26 3.61 2.41.001 4.16-1.2 5.26-3.61zm-54.8 5.23c-2.8-3.86-4.2-9.44-4.2-16.7 0-7.26 1.4-12.8 4.2-16.7 2.8-3.86 6.86-5.79 12.2-5.79 5.31 0 9.37 1.93 12.2 5.79s4.2 9.42 4.2 16.7c0 7.3-1.4 12.9-4.2 16.7-2.8 3.86-6.86 5.79-12.2 5.79s-9.37-1.93-12.2-5.79zm17.4-5.23c1.1-2.4 1.65-6.24 1.65-11.5 0-5.31-.55-9.15-1.65-11.5-1.1-2.36-2.85-3.55-5.26-3.55-2.41 0-4.16 1.19-5.26 3.58-1.1 2.39-1.65 6.21-1.65 11.5 0 5.27.549 9.11 1.65 11.5 1.1 2.41 2.85 3.61 5.26 3.61 2.41.001 4.16-1.2 5.26-3.61zm-32.7-16.1c2.12 1.18 3.75 2.83 4.92 4.95 1.16 2.12 1.74 4.56 1.74 7.34 0 2.9-.685 5.48-2.05 7.72-1.37 2.24-3.29 3.98-5.76 5.23-2.47 1.24-5.32 1.87-8.56 1.87-2.57 0-5.08-.395-7.53-1.18-2.45-.788-4.56-1.89-6.35-3.3-.623-.456-1.06-.943-1.31-1.46s-.374-1.15-.374-1.9c0-1.08.301-2 .903-2.77.601-.768 1.34-1.15 2.21-1.15.498 0 .954.073 1.37.218.415.146.954.404 1.62.778 1.66.995 3.17 1.77 4.54 2.33 1.37.561 2.86.841 4.48.841 2.53 0 4.45-.581 5.76-1.74 1.31-1.16 1.96-2.88 1.96-5.16 0-2.16-.675-3.86-2.02-5.1-1.35-1.24-3.16-1.87-5.44-1.87-1.41 0-2.7.177-3.86.529-1.16.353-2.43.944-3.8 1.77-.871.498-1.74.747-2.61.747-.996 0-1.84-.301-2.52-.902s-1.03-1.4-1.03-2.4v-18.1c0-1.45.394-2.57 1.18-3.36.788-.787 1.91-1.18 3.36-1.18h20c3.07 0 4.6 1.22 4.6 3.67 0 2.49-1.54 3.73-4.6 3.73h-15.1v9.77c1.99-1.12 4.34-1.68 7.03-1.68 2.7 0 5.1.592 7.22 1.78z" fill="#eee"/><path d="m687 117c-2.01-2.3-3.02-5.65-3.02-10.1 0-4.27 1.02-7.56 3.05-9.86s4.81-3.45 8.34-3.45c3.57 0 6.36 1.15 8.37 3.45 2.01 2.3 3.02 5.61 3.02 9.93 0 4.4-1.01 7.74-3.02 10-2.01 2.28-4.8 3.42-8.37 3.42s-6.36-1.15-8.37-3.46zm11.2-4.14c.58-1.16.871-3.11.871-5.85 0-2.61-.301-4.51-.902-5.69s-1.52-1.77-2.77-1.77c-1.24 0-2.16.581-2.74 1.74-.582 1.16-.871 3.07-.871 5.73 0 2.7.289 4.64.871 5.82.58 1.18 1.49 1.77 2.74 1.77 1.28 0 2.22-.58 2.8-1.74zm1.74 26.5c-.871 0-1.63-.322-2.27-.965-.644-.643-.965-1.44-.965-2.4 0-.787.25-1.62.748-2.49l22-38c.871-1.58 2.03-2.36 3.48-2.36.912 0 1.69.321 2.33.965.643.644.965 1.44.965 2.4 0 .789-.248 1.62-.746 2.49l-22 38c-.954 1.58-2.14 2.36-3.55 2.36zm19.2-4.2c-2.01-2.3-3.02-5.65-3.02-10.1 0-4.31 1.01-7.61 3.02-9.9 2.01-2.28 4.8-3.42 8.37-3.42 3.53 0 6.31 1.15 8.34 3.45s3.05 5.61 3.05 9.93c0 4.36-1.01 7.69-3.02 9.99-2.01 2.3-4.8 3.45-8.37 3.45-3.57.001-6.36-1.15-8.37-3.45zm11.2-4.14c.581-1.16.872-3.11.872-5.85 0-2.65-.302-4.57-.902-5.76-.603-1.18-1.52-1.77-2.77-1.77s-2.17.592-2.77 1.77c-.603 1.18-.902 3.1-.902 5.76 0 2.74.29 4.69.871 5.85s1.52 1.74 2.8 1.74c1.28 0 2.22-.581 2.8-1.74zm-79.4 1.93c-2.8-3.86-4.2-9.44-4.2-16.7 0-7.26 1.4-12.8 4.2-16.7s6.86-5.79 12.2-5.79c5.31 0 9.36 1.93 12.2 5.79s4.2 9.42 4.2 16.7c0 7.3-1.4 12.9-4.2 16.7-2.8 3.86-6.86 5.79-12.2 5.79-5.31 0-9.37-1.93-12.2-5.79zm17.4-5.23c1.1-2.4 1.65-6.24 1.65-11.5 0-5.31-.551-9.15-1.65-11.5-1.1-2.36-2.85-3.55-5.26-3.55-2.41 0-4.16 1.19-5.26 3.58-1.1 2.39-1.65 6.21-1.65 11.5 0 5.27.549 9.11 1.65 11.5 1.1 2.41 2.85 3.61 5.26 3.61 2.4.001 4.16-1.2 5.26-3.61zm-32.7-16.1c2.12 1.18 3.76 2.83 4.92 4.95 1.16 2.12 1.74 4.56 1.74 7.34 0 2.9-.685 5.48-2.05 7.72-1.37 2.24-3.29 3.98-5.76 5.23-2.47 1.24-5.32 1.87-8.56 1.87-2.57 0-5.08-.395-7.53-1.18-2.45-.788-4.56-1.89-6.35-3.3-.623-.456-1.06-.943-1.31-1.46s-.374-1.15-.374-1.9c0-1.08.301-2 .903-2.77.601-.768 1.34-1.15 2.21-1.15.498 0 .954.073 1.37.218.415.146.954.404 1.62.778 1.66.995 3.17 1.77 4.54 2.33 1.37.561 2.86.841 4.48.841 2.53 0 4.45-.581 5.76-1.74 1.31-1.16 1.96-2.88 1.96-5.16 0-2.16-.676-3.86-2.02-5.1-1.35-1.24-3.16-1.87-5.44-1.87-1.41 0-2.7.177-3.86.529s-2.43.944-3.8 1.77c-.871.498-1.74.747-2.61.747-.995 0-1.84-.301-2.52-.902-.686-.602-1.03-1.4-1.03-2.4v-18.1c0-1.45.394-2.57 1.18-3.36.788-.787 1.91-1.18 3.36-1.18h20c3.07 0 4.6 1.22 4.6 3.67 0 2.49-1.54 3.73-4.6 3.73h-15.1v9.77c1.99-1.12 4.34-1.68 7.03-1.68s5.1.592 7.22 1.78zm-52.8 9.92c0-2.45 1.47-3.67 4.42-3.67h12.2c2.94 0 4.42 1.22 4.42 3.67 0 2.45-1.47 3.67-4.42 3.67h-12.2c-2.95 0-4.42-1.22-4.42-3.67z" fill="#b7edb7"/><path d="m535 174c-.783 0-1.42-.634-1.42-1.42v-109c0-.783.634-1.42 1.42-1.42s1.42.634 1.42 1.42v109c0 .783-.634 1.42-1.42 1.42z" fill="#F2F2F2"/><line x1="145" x2="146" y1="-118" y2="-117" fill="none" stroke="#FAFAFA" stroke-linecap="round" stroke-width="2.83"/></svg>