<svg viewBox="0 0 558 232" xmlns="http://www.w3.org/2000/svg"><g fill="#fff"><path d="m442 0h-326c-64 0-116 52.2-116 116 0 63.9 51.7 113 116 116h326c.097 0 .193-.646.291-.646 64 0 116-51.9 116-116 .001-64-51.9-116-116-116z"/><path d="m116 49.7c36.2 0 65.5 29.3 65.5 65.5 0 36.2-29.3 65.5-65.5 65.5-36.2 0-65.5-29.3-65.5-65.5.001-36.2 29.3-65.5 65.5-65.5z" fill="#9E9CF2"/><path d="m113 136c-1.03 0-2.02-.408-2.74-1.14l-20.4-20.4c-1.52-1.52-1.52-3.98 0-5.49 1.52-1.52 3.98-1.52 5.49 0l17.7 17.7 28.9-28.9c1.52-1.52 3.98-1.52 5.49 0 1.52 1.52 1.52 3.98 0 5.49l-31.7 31.7c-.727.729-1.72 1.14-2.75 1.14z"/></g><path d="m375 99.9c0 1.16-.426 2.2-1.28 3.11-.852.913-1.84 1.37-2.96 1.37-1.08 0-2.07-.436-2.99-1.31l-13.6-12.6v9.52c0 1.45-.445 2.55-1.34 3.3-.893.747-2 1.12-3.33 1.12-1.37 0-2.5-.373-3.39-1.12-.893-.747-1.34-1.85-1.34-3.3v-35.7c0-1.45.445-2.55 1.34-3.3.891-.747 2.02-1.12 3.39-1.12 1.33 0 2.44.374 3.33 1.12.893.747 1.34 1.85 1.34 3.3v22.3l12.4-12.3c.912-.912 1.93-1.37 3.05-1.37 1.16 0 2.18.426 3.05 1.28.871.851 1.31 1.86 1.31 3.02 0 1.08-.477 2.1-1.43 3.05l-8.28 7.9 9.27 8.59c.953.913 1.43 1.95 1.43 3.11zm-42.6-22.4c2.12 1.18 3.75 2.83 4.92 4.95s1.74 4.56 1.74 7.34c0 2.9-.685 5.48-2.05 7.72-1.37 2.24-3.29 3.98-5.76 5.23-2.47 1.24-5.32 1.87-8.56 1.87-2.57 0-5.08-.395-7.53-1.18-2.45-.788-4.56-1.89-6.35-3.3-.622-.456-1.06-.943-1.31-1.46-.249-.518-.373-1.15-.373-1.9 0-1.08.301-2 .902-2.77.601-.767 1.34-1.15 2.21-1.15.498 0 .954.073 1.37.218.414.146.954.404 1.62.778 1.66.996 3.18 1.77 4.54 2.33s2.86.84 4.48.84c2.53 0 4.45-.581 5.76-1.74 1.31-1.16 1.96-2.88 1.96-5.17 0-2.16-.674-3.86-2.02-5.1s-3.16-1.87-5.44-1.87c-1.41 0-2.7.177-3.86.529-1.16.353-2.43.944-3.8 1.77-.871.498-1.74.747-2.61.747-.996 0-1.84-.301-2.52-.902-.684-.601-1.03-1.4-1.03-2.4v-18.1c0-1.45.394-2.57 1.18-3.36.787-.788 1.91-1.18 3.36-1.18h20c3.07 0 4.6 1.22 4.6 3.67 0 2.49-1.54 3.73-4.6 3.73h-15.1v9.77c1.99-1.12 4.34-1.68 7.03-1.68 2.7.002 5.1.593 7.22 1.78zm-32.9 18c.995 1.18 1.49 2.89 1.49 5.14 0 4.31-1.56 8.09-4.67 11.3-.621.623-1.29.934-1.99.934-.707 0-1.32-.239-1.84-.716-.52-.477-.779-1.05-.779-1.71 0-.622.229-1.16.686-1.62 1.37-1.41 2.28-2.99 2.74-4.73-1.41-.124-2.55-.643-3.42-1.56-.871-.912-1.31-2.07-1.31-3.48 0-1.53.487-2.81 1.46-3.83.975-1.02 2.19-1.52 3.64-1.52 1.66-.002 2.99.59 3.98 1.77zm-17.3-10.1c1.39 1.85 2.09 4.1 2.09 6.75 0 2.53-.654 4.73-1.96 6.6s-3.18 3.31-5.63 4.33c-2.45 1.02-5.29 1.52-8.53 1.52-2.7 0-5.28-.395-7.75-1.18s-4.6-1.89-6.38-3.3c-.623-.456-1.07-.954-1.34-1.49-.27-.539-.404-1.16-.404-1.87 0-1.08.311-2 .934-2.77.622-.767 1.37-1.15 2.24-1.15.498 0 .954.073 1.37.218.415.146.934.404 1.56.778 1.82 1.04 3.4 1.83 4.73 2.36 1.33.54 2.88.809 4.67.809 2.53 0 4.38-.467 5.54-1.4 1.16-.934 1.74-2.4 1.74-4.39 0-1.95-.602-3.36-1.8-4.23-1.2-.872-3.13-1.31-5.79-1.31h-3.67c-1.08 0-1.93-.374-2.55-1.12-.623-.747-.934-1.64-.934-2.68 0-.996.311-1.87.934-2.61.622-.747 1.47-1.12 2.55-1.12h2.61c2.53 0 4.41-.436 5.63-1.31 1.22-.872 1.84-2.22 1.84-4.04 0-1.74-.519-3.1-1.56-4.08-1.04-.974-2.49-1.46-4.36-1.46-1.54 0-2.97.271-4.29.809-1.33.54-2.86 1.33-4.6 2.36-.623.374-1.14.633-1.56.778-.415.146-.871.218-1.37.218-.871 0-1.62-.383-2.24-1.15-.623-.767-.934-1.69-.934-2.77 0-.747.134-1.38.404-1.9.27-.518.716-1 1.34-1.46 1.74-1.41 3.83-2.51 6.25-3.3s4.91-1.18 7.44-1.18c2.94 0 5.54.488 7.78 1.46 2.24.976 3.96 2.36 5.17 4.14 1.2 1.78 1.8 3.86 1.8 6.22s-.612 4.43-1.84 6.19c-1.22 1.76-2.92 3.04-5.07 3.83 2.57.746 4.55 2.04 5.94 3.89zm-33.2 14.8c0 2.61-1.52 3.92-4.54 3.92h-21.3c-3.07 0-4.6-1.31-4.6-3.92 0-2.57 1.54-3.86 4.6-3.86h5.79v-25.5l-5.48 3.3c-.623.374-1.24.56-1.87.56-1.04 0-1.92-.436-2.64-1.31-.727-.872-1.09-1.85-1.09-2.92 0-1.45.643-2.55 1.93-3.3l9.83-5.91c1.45-.871 2.9-1.31 4.36-1.31 1.37 0 2.49.426 3.36 1.28.871.851 1.31 2 1.31 3.45v31.6h5.79c3.03.001 4.54 1.29 4.54 3.86zm215 63.6c-1.89-.416-3.54-1.09-4.96-2.01-.626-.377-1.1-.879-1.44-1.51-.334-.627-.504-1.33-.504-2.13 0-.965.274-1.76.814-2.42.546-.648 1.21-.977 2.01-.977.541 0 1.09.096 1.63.285.544.186 1.11.406 1.7.656 1.17.545 2.32.975 3.45 1.28 1.13.314 2.53.471 4.2.471 1.46 0 2.6-.227 3.42-.686.815-.463 1.22-1.09 1.22-1.89 0-.584-.178-1.05-.532-1.41-.356-.354-1.02-.68-1.98-.971-.963-.293-2.49-.65-4.58-1.07-3.72-.713-6.4-1.78-8.03-3.2-1.63-1.42-2.45-3.41-2.45-5.96 0-1.88.577-3.57 1.73-5.08 1.15-1.5 2.73-2.69 4.74-3.54 2.01-.857 4.26-1.28 6.78-1.28 1.79 0 3.55.229 5.27.691 1.71.463 3.24 1.11 4.58 1.94 1.29.793 1.95 1.97 1.95 3.51 0 1-.277 1.84-.82 2.51-.542.67-1.21 1-2.01 1-.968 0-2.11-.373-3.45-1.13-1.05-.541-2-.947-2.86-1.22-.858-.27-1.87-.406-3.04-.406-1.3 0-2.32.24-3.07.723-.751.482-1.13 1.14-1.13 1.98 0 .877.437 1.55 1.32 2.01.88.463 2.58.92 5.08 1.38 2.8.545 5 1.2 6.59 1.98 1.59.773 2.73 1.74 3.45 2.91.71 1.18 1.07 2.66 1.07 4.46 0 2.97-1.22 5.33-3.67 7.09-2.45 1.76-5.72 2.64-9.82 2.64-2.55 0-4.78-.207-6.65-.629zm-8.5-30.5c.729.652 1.09 1.62 1.09 2.92 0 1.38-.335 2.4-1 3.07-.67.672-1.86 1.09-3.58 1.26l-1.88.188c-2.3.248-3.96 1-4.99 2.26-1.02 1.25-1.54 2.87-1.54 4.83v12c0 1.46-.448 2.57-1.35 3.32-.899.754-2.02 1.13-3.36 1.13-1.38 0-2.52-.377-3.42-1.13-.898-.752-1.35-1.86-1.35-3.32v-23c0-1.38.46-2.45 1.38-3.2.917-.754 2.03-1.13 3.32-1.13 1.26 0 2.3.369 3.14 1.1.831.73 1.25 1.74 1.25 3.04v1.69c.752-1.8 1.89-3.18 3.42-4.14 1.52-.961 3.19-1.51 4.99-1.63l.879-.061c1.25-.086 2.25.199 2.98.844zm-28 22.4c.521.672.783 1.53.783 2.57 0 .715-.21 1.37-.627 1.98-.419.604-1 1.12-1.76 1.53-1.43.752-3.07 1.37-4.96 1.85-1.88.48-3.62.721-5.2.721-3.35 0-6.27-.648-8.75-1.94-2.49-1.3-4.4-3.15-5.74-5.55-1.34-2.41-2.01-5.24-2.01-8.5 0-3.14.646-5.92 1.94-8.34 1.3-2.43 3.1-4.32 5.4-5.68 2.3-1.36 4.91-2.04 7.84-2.04 2.8 0 5.26.615 7.37 1.85 2.11 1.24 3.75 2.99 4.92 5.27 1.17 2.28 1.76 4.94 1.76 8 0 .922-.222 1.62-.659 2.1-.44.482-1.06.725-1.85.725h-17.6c.289 2.47 1.04 4.26 2.26 5.36 1.21 1.11 2.95 1.66 5.21 1.66 1.21 0 2.3-.146 3.26-.439.964-.291 2.03-.689 3.2-1.19.589-.25 1.15-.471 1.69-.656.543-.189 1.02-.285 1.44-.285.845-.001 1.52.338 2.05 1zm-17.2-15.2c-1.09 1.15-1.74 2.81-1.94 4.99h12.1c-.13-2.21-.681-3.89-1.67-5.02-.986-1.13-2.38-1.69-4.17-1.69-1.8 0-3.24.573-4.32 1.72zm-20.1-7.37c.664-.457 1.38-.691 2.13-.691 1.17 0 2.22.4 3.13 1.2.919.797 1.38 1.78 1.38 2.95 0 .5-.124 1.06-.38 1.69l-10.3 23.1c-.374.92-.979 1.62-1.82 2.1-.838.479-1.71.723-2.63.723-.967 0-1.85-.24-2.67-.723-.816-.48-1.41-1.18-1.79-2.1l-6.71-15.6-6.46 15.6c-.38.92-.966 1.62-1.76 2.1-.794.479-1.69.723-2.7.723-.965 0-1.86-.24-2.7-.723-.84-.48-1.44-1.18-1.82-2.1l-10.2-23.1c-.255-.584-.379-1.15-.379-1.69 0-1.17.492-2.15 1.48-2.95.98-.795 2.1-1.2 3.35-1.2.837 0 1.6.234 2.29.691.687.461 1.22 1.13 1.6 2.01l6.71 16.9 6.84-16.8c.374-.877.929-1.56 1.66-2.04.732-.475 1.54-.721 2.42-.721.877 0 1.69.23 2.45.691.752.463 1.32 1.15 1.69 2.07l6.96 16.8 6.65-16.9c.374-.88.899-1.55 1.57-2.01zm-73 29.2c-2.47-1.32-4.37-3.18-5.71-5.58-1.34-2.4-2.01-5.24-2.01-8.5 0-3.26.664-6.09 2.01-8.5 1.34-2.4 3.24-4.25 5.71-5.55 2.46-1.3 5.33-1.94 8.59-1.94 3.26 0 6.13.65 8.59 1.94 2.47 1.3 4.37 3.15 5.71 5.55 1.34 2.41 2.01 5.24 2.01 8.5 0 3.26-.671 6.1-2.01 8.5-1.34 2.4-3.24 4.26-5.71 5.58-2.47 1.32-5.33 1.98-8.59 1.98-3.26.002-6.13-.653-8.59-1.98zm15.5-14.1c0-2.97-.595-5.19-1.79-6.65-1.19-1.46-2.9-2.19-5.12-2.19-4.6 0-6.9 2.95-6.9 8.85 0 5.9 2.3 8.84 6.9 8.84 4.6-.001 6.9-2.95 6.9-8.84zm-37.1 14.8c-.898-.752-1.35-1.86-1.35-3.32v-36c0-1.46.449-2.57 1.35-3.32.9-.753 2.04-1.13 3.42-1.13 1.34 0 2.46.373 3.36 1.13.902.754 1.35 1.86 1.35 3.32v36c0 1.46-.445 2.57-1.35 3.32-.896.754-2.02 1.13-3.36 1.13-1.38 0-2.52-.377-3.42-1.13zm-16.7 0c-.902-.752-1.35-1.86-1.35-3.32v-36c0-1.46.445-2.57 1.35-3.32.897-.753 2.04-1.13 3.42-1.13 1.34 0 2.46.373 3.35 1.13.9.754 1.35 1.86 1.35 3.32v36c0 1.46-.447 2.57-1.35 3.32-.899.754-2.02 1.13-3.35 1.13-1.38 0-2.52-.377-3.42-1.13zm-32-.721c-2.47-1.32-4.37-3.18-5.71-5.58-1.34-2.4-2.01-5.24-2.01-8.5 0-3.26.671-6.09 2.01-8.5 1.33-2.4 3.24-4.25 5.71-5.55 2.47-1.3 5.34-1.94 8.6-1.94 3.26 0 6.13.65 8.59 1.94 2.47 1.3 4.37 3.15 5.71 5.55 1.34 2.41 2.01 5.24 2.01 8.5 0 3.26-.666 6.1-2.01 8.5-1.34 2.4-3.24 4.26-5.71 5.58-2.47 1.32-5.33 1.98-8.59 1.98-3.26.002-6.13-.653-8.6-1.98zm15.5-14.1c0-2.97-.593-5.19-1.79-6.65-1.2-1.46-2.9-2.19-5.11-2.19-4.6 0-6.9 2.95-6.9 8.85 0 5.9 2.3 8.84 6.9 8.84 4.6-.001 6.9-2.95 6.9-8.84zm-31.9-20.2c-.754.924-1.13 2.22-1.13 3.89v1.07h4.39c2.84 0 4.27 1.19 4.27 3.57 0 2.34-1.42 3.51-4.27 3.51h-4.39v19.6c0 1.46-.45 2.57-1.35 3.32-.896.754-2.02 1.13-3.35 1.13-1.38 0-2.52-.377-3.42-1.13-.9-.75-1.35-1.86-1.35-3.32v-19.6h-2.5c-2.81 0-4.21-1.17-4.21-3.51 0-2.38 1.4-3.57 4.21-3.57h2.5c0-4.02 1.1-7.18 3.33-9.47 2.22-2.3 5.27-3.6 9.16-3.89l1.62-.125 1.13-.062c2.89 0 4.33 1.11 4.33 3.32 0 2.18-1.21 3.37-3.64 3.58l-1.63.124c-1.72.121-2.95.645-3.7 1.56z" fill="#eee"/></svg>