<svg viewBox="0 0 533 534" xmlns="http://www.w3.org/2000/svg"><path d="m533 518c0 8.42-6.83 15.2-15.2 15.2h-503c-8.42 0-15.2-6.83-15.2-15.2v-503c0-8.42 6.83-15.2 15.2-15.2h503c8.42 0 15.2 6.83 15.2 15.2v503z" fill="#fff"/><path d="m101 236c22.5 0 40.7 18.2 40.7 40.7s-18.2 40.7-40.7 40.7c-22.5 0-40.7-18.2-40.7-40.7s18.2-40.7 40.7-40.7z" fill="#F4D8D0"/><path d="m101 369c22.5 0 40.7 18.2 40.7 40.7s-18.2 40.7-40.7 40.7c-22.5 0-40.7-18.2-40.7-40.7s18.2-40.7 40.7-40.7z" fill="#F4BDEC"/><path d="m396 301c0 3.23-2.62 5.86-5.86 5.86h-66.6c-3.23 0-5.85-2.62-5.85-5.86v-10.2c0-3.23 2.62-5.85 5.85-5.85h66.6c3.23 0 5.86 2.62 5.86 5.85v10.2z" fill="#C5E2F9"/><path d="m268 396c0 3.23-2.62 5.86-5.86 5.86h-88.6c-3.23 0-5.85-2.62-5.85-5.86v-10.2c0-3.23 2.62-5.85 5.85-5.85h88.6c3.23 0 5.86 2.62 5.86 5.85zm133 5.86h-115c-3.23 0-5.85-2.62-5.85-5.85v-10.2c0-3.23 2.62-5.86 5.85-5.86h115c3.23 0 5.85 2.62 5.85 5.86l5e-4 11.9c5e-4 1.62-2.62 4.24-5.85 4.24zm-143-309c.474.441.712 1.08.712 1.93 0 .983-.391 1.73-1.17 2.24s-1.9.712-3.35.61l-1.42-.102c-5.93-.474-8.9-3.58-8.9-9.3v-10.1h-2.03c-1.12 0-1.97-.246-2.54-.737-.575-.491-.864-1.19-.864-2.11 0-.948.289-1.67.864-2.16.576-.491 1.42-.737 2.54-.737h2.03v-3.96c0-1.12.347-2 1.04-2.64.694-.643 1.64-.966 2.82-.966s2.12.323 2.8.966c.678.645 1.02 1.52 1.02 2.64v3.96h3.56c2.3 0 3.46.966 3.46 2.9 0 .915-.288 1.62-.863 2.11-.577.492-1.44.737-2.59.737h-3.56v10.6c0 1.02.236 1.79.711 2.31s1.17.822 2.08.889l1.42.102c1.02.067 1.76.322 2.24.762zm-21.7-20.3c.593.526.89 1.31.89 2.36 0 1.12-.271 1.95-.813 2.49-.542.542-1.51.882-2.9 1.02l-1.52.153c-1.86.203-3.21.813-4.04 1.83-.831 1.02-1.24 2.32-1.24 3.91v9.71c0 1.19-.365 2.08-1.09 2.69s-1.64.915-2.72.915c-1.12 0-2.04-.305-2.77-.915s-1.09-1.51-1.09-2.69v-18.7c0-1.12.372-1.98 1.12-2.59.745-.61 1.64-.915 2.69-.915 1.02 0 1.86.297 2.54.89s1.02 1.42 1.02 2.46v1.37c.61-1.46 1.53-2.58 2.77-3.36 1.24-.779 2.58-1.22 4.04-1.32l.712-.051c1.02-.069 1.82.16 2.41.685zm-42.2 23.6c-2-1.07-3.54-2.58-4.63-4.52-1.08-1.95-1.63-4.24-1.63-6.89s.541-4.94 1.63-6.89c1.08-1.95 2.63-3.45 4.63-4.5 2-1.05 4.32-1.58 6.96-1.58 2.64 0 4.96.526 6.96 1.58 2 1.05 3.54 2.55 4.62 4.5 1.08 1.95 1.63 4.24 1.63 6.89s-.543 4.94-1.63 6.89c-1.08 1.95-2.63 3.46-4.62 4.52-2 1.07-4.32 1.6-6.96 1.6s-4.96-.533-6.96-1.6zm12.6-11.4c0-2.41-.482-4.2-1.45-5.39s-2.35-1.78-4.14-1.78c-3.73 0-5.59 2.39-5.59 7.17s1.86 7.17 5.59 7.17c3.73 0 5.59-2.39 5.59-7.17zm-27.6-11.3c1.68 1.1 2.98 2.64 3.91 4.62.932 1.98 1.4 4.26 1.4 6.84 0 2.58-.466 4.84-1.4 6.79-.933 1.95-2.23 3.45-3.89 4.5-1.66 1.05-3.58 1.58-5.74 1.58-1.69 0-3.23-.348-4.6-1.04-1.37-.694-2.43-1.67-3.18-2.92v9.61c0 1.02-.34 1.83-1.02 2.44-.679.61-1.58.915-2.69.915-1.19 0-2.14-.323-2.87-.966-.729-.644-1.09-1.49-1.09-2.54v-27.8c0-1.08.347-1.96 1.04-2.62.694-.661 1.62-.991 2.77-.991 1.15 0 2.07.331 2.74.991.678.661 1.02 1.53 1.02 2.62v.406c.745-1.29 1.81-2.3 3.2-3.02 1.39-.728 2.95-1.09 4.68-1.09 2.14 0 4.04.551 5.72 1.65zm-3.79 16.7c.982-1.2 1.48-2.94 1.48-5.21 0-2.3-.492-4.09-1.48-5.36-.983-1.27-2.37-1.91-4.17-1.91-1.8 0-3.19.619-4.17 1.86-.983 1.24-1.48 3.01-1.48 5.31 0 2.27.491 4.02 1.48 5.26.982 1.24 2.37 1.86 4.17 1.86 1.8-.001 3.18-.602 4.17-1.8zm-27.4-16.7c1.68 1.1 2.98 2.64 3.91 4.62.932 1.98 1.4 4.26 1.4 6.84 0 2.58-.466 4.84-1.4 6.79-.933 1.95-2.23 3.45-3.89 4.5-1.66 1.05-3.58 1.58-5.74 1.58-1.69 0-3.23-.348-4.6-1.04-1.37-.694-2.43-1.67-3.18-2.92v9.61c0 1.02-.34 1.83-1.02 2.44-.679.61-1.58.915-2.69.915-1.19 0-2.14-.323-2.87-.966-.729-.644-1.09-1.49-1.09-2.54v-27.8c0-1.08.347-1.96 1.04-2.62.694-.661 1.62-.991 2.77-.991 1.15 0 2.07.331 2.74.991.678.661 1.02 1.53 1.02 2.62v.406c.745-1.29 1.81-2.3 3.2-3.02 1.39-.728 2.95-1.09 4.68-1.09 2.14 0 4.04.551 5.72 1.65zm-3.79 16.7c.982-1.2 1.48-2.94 1.48-5.21 0-2.3-.492-4.09-1.48-5.36-.983-1.27-2.37-1.91-4.17-1.91-1.8 0-3.19.619-4.17 1.86-.983 1.24-1.48 3.01-1.48 5.31 0 2.27.491 4.02 1.48 5.26.982 1.24 2.37 1.86 4.17 1.86 1.8-.001 3.18-.602 4.17-1.8zm-24.3-17.3c.694.645 1.04 1.52 1.04 2.64v18.7c0 1.05-.365 1.9-1.09 2.54-.729.644-1.67.966-2.82.966-1.08 0-1.95-.305-2.59-.915s-.966-1.42-.966-2.44v-.509c-.779 1.29-1.8 2.27-3.08 2.95s-2.7 1.02-4.3 1.02c-3.15 0-5.5-.872-7.04-2.62-1.54-1.74-2.31-4.38-2.31-7.9v-11.7c0-1.12.347-2 1.04-2.64.694-.643 1.64-.966 2.82-.966s2.12.323 2.8.966c.678.645 1.02 1.52 1.02 2.64v11.9c0 1.49.313 2.59.94 3.3.627.711 1.58 1.07 2.87 1.07 1.49 0 2.7-.508 3.64-1.52.932-1.02 1.4-2.36 1.4-4.02v-10.7c0-1.12.339-2 1.02-2.64.678-.643 1.61-.966 2.8-.966 1.19 0 2.13.323 2.82.966zm-50 24c-2.3-.626-4.19-1.52-5.64-2.67-.508-.373-.872-.771-1.09-1.2-.221-.423-.33-.957-.33-1.6 0-.847.262-1.59.788-2.24.524-.644 1.13-.966 1.8-.966.373 0 .737.06 1.09.178.355.119.787.331 1.3.635 1.46.915 2.93 1.58 4.42 2.01s3.13.636 4.93.636c2.24 0 3.95-.373 5.13-1.12 1.19-.745 1.78-1.81 1.78-3.2 0-1.05-.551-1.9-1.65-2.54-1.1-.643-3.06-1.25-5.87-1.83-3.15-.643-5.67-1.42-7.55-2.34s-3.25-2.05-4.12-3.41c-.864-1.36-1.3-3-1.3-4.93 0-2.14.617-4.06 1.86-5.77 1.24-1.71 2.95-3.05 5.13-4.02 2.19-.966 4.65-1.45 7.4-1.45 4.81 0 8.78 1.2 11.9 3.61.508.407.872.822 1.09 1.25.22.424.33.94.33 1.55 0 .847-.263 1.59-.788 2.24-.525.644-1.13.966-1.8.966-.374 0-.721-.051-1.04-.152-.323-.102-.771-.322-1.35-.661-1.39-.88-2.67-1.54-3.84-1.98-1.17-.44-2.65-.661-4.45-.661-2.07 0-3.69.399-4.88 1.2-1.19.796-1.78 1.89-1.78 3.28 0 .813.229 1.48.687 2.01.458.526 1.22.991 2.29 1.4s2.58.831 4.55 1.27c4.61 1.02 7.92 2.32 9.94 3.91 2.02 1.59 3.02 3.78 3.02 6.56 0 2.17-.603 4.08-1.8 5.74-1.2 1.66-2.9 2.95-5.08 3.86s-4.72 1.37-7.6 1.37c-2.68-.001-5.17-.315-7.47-.941zm362 171h-258c-3.23 0-5.85-2.62-5.85-5.85v-10.2c0-3.23 2.62-5.85 5.85-5.85h258c3.23 0 5.85 2.62 5.85 5.85l5e-4 11.9c5e-4 1.62-2.62 4.24-5.85 4.24z" fill="#eee"/><path d="m197 180c0 3.23-2.62 5.86-5.86 5.86h-125c-3.23 0-5.85-2.62-5.85-5.86v-10.2c0-3.23 2.62-5.85 5.85-5.85h125c3.23 0 5.86 2.62 5.86 5.85zm117-27.8h-141c-3.23 0-5.85-2.62-5.85-5.86v-10.2c0-3.23 2.62-5.85 5.85-5.85h141c3.23 0 5.86 2.62 5.86 5.85l5e-4 11.9c5e-4 1.62-2.62 4.24-5.85 4.24zm-157-5.85c0 3.23-2.62 5.86-5.86 5.86h-85c-3.23 0-5.85-2.62-5.85-5.86v-10.2c0-3.23 2.62-5.85 5.85-5.85h85c3.23 0 5.86 2.62 5.86 5.85zm92.2 287c0 3.23-2.62 5.86-5.86 5.86h-70c-3.23 0-5.85-2.62-5.85-5.86v-10.2c0-3.23 2.62-5.85 5.85-5.85h70c3.23 0 5.86 2.62 5.86 5.85zm203 0c0 3.23-2.62 5.86-5.86 5.86h-38.5c-3.23 0-5.85-2.62-5.85-5.86v-10.2c0-3.23 2.62-5.85 5.85-5.85h38.5c3.23 0 5.86 2.62 5.86 5.85zm-69.4 5.86h-114c-3.23 0-5.85-2.62-5.85-5.86v-10.2c0-3.23 2.62-5.85 5.85-5.85h114c3.23 0 5.86 2.62 5.86 5.85l5e-4 11.9c5e-4 1.62-2.62 4.24-5.85 4.24zm-83.3-133h-126c-3.23 0-5.85-2.62-5.85-5.86v-10.2c0-3.23 2.62-5.85 5.85-5.85h126c3.23 0 5.86 2.62 5.86 5.85l5e-4 11.9c5e-4 1.62-2.62 4.24-5.85 4.24z" fill="#f2f2f2"/></svg>