<svg viewBox="0 0 565 565" xmlns="http://www.w3.org/2000/svg"><circle cx="283" cy="283" r="283" fill="#fff"/><path d="m315 313h-104c-8.56 0-15.5-6.94-15.5-15.5 0-8.56 6.94-15.5 15.5-15.5h104c8.56 0 15.5 6.94 15.5 15.5s-6.94 15.5-15.5 15.5zm30-51h-134c-8.56 0-15.5-6.94-15.5-15.5 0-8.56 6.94-15.5 15.5-15.5h134c8.56 0 15.5 6.94 15.5 15.5 0 8.56-6.94 15.5-15.5 15.5zm-161 170c-2.38 0-4.77-.547-6.98-1.66-5.22-2.64-8.52-7.99-8.52-13.8v-41c-18.5-.551-34-16.3-34-35v-141c0-18.7 15.7-34 35-34h226c19.1 0 34 14.9 34 34v141c0 19.3-15.3 35-34 35h-130l-72.4 53.5c-2.72 2.01-5.96 3.03-9.21 3.03zm-14.5-236c-1.89 0-4 1.23-4 3v141c0 1.94 2.06 4 4 4h14.5c8.56 0 15.5 6.94 15.5 15.5v25.8l51.8-38.3c2.67-1.97 5.9-3.03 9.21-3.03h135c1.77 0 3-2.11 3-4v-141c0-1.93-1.06-3-3-3z" fill="#ef9ce8"/></svg>