<svg width="19" height="11" viewBox="0 0 19 11" fill="none" xmlns="http://www.w3.org/2000/svg">
<path d="M2.57788 6.8335C3.87135 6.8335 4.91992 5.78493 4.91992 4.49145C4.91992 3.19798 3.87135 2.14941 2.57788 2.14941C1.28441 2.14941 0.23584 3.19798 0.23584 4.49145C0.23584 5.78493 1.28441 6.8335 2.57788 6.8335Z" fill="#CBD7E2"/>
<path d="M2.54585 7.44569C1.12795 7.46277 0 8.64605 0 10.064V10.7235C0 10.8761 0.123782 10.9999 0.276444 10.9999H4.87875C5.03142 10.9999 5.1552 10.8761 5.1552 10.7235V10.0231C5.1552 8.58907 3.98395 7.42838 2.54585 7.44569Z" fill="#CBD7E2"/>
<path d="M8.50949 6.49138C9.90946 6.49138 11.0444 5.35648 11.0444 3.95651C11.0444 2.55653 9.90946 1.42163 8.50949 1.42163C7.10951 1.42163 5.97461 2.55653 5.97461 3.95651C5.97461 5.35648 7.10951 6.49138 8.50949 6.49138Z" fill="#CBD7E2"/>
<path d="M8.47529 7.15353C6.94087 7.17198 5.72021 8.45251 5.72021 9.98707V10.7235C5.72021 10.8761 5.844 10.9999 5.99666 10.9999H11.0227C11.1753 10.9999 11.2991 10.8761 11.2991 10.7235V9.94276C11.2991 8.39075 10.0316 7.13479 8.47529 7.15353Z" fill="#CBD7E2"/>
<path d="M14.9873 5.83626C16.5904 5.83626 17.89 4.53655 17.89 2.93321C17.89 1.33023 16.5904 0.0305176 14.9873 0.0305176C13.384 0.0305176 12.0845 1.33023 12.0845 2.93321C12.0845 4.53655 13.3841 5.83626 14.9873 5.83626Z" fill="#CBD7E2"/>
<path d="M14.987 6.59467C13.2227 6.59467 11.7925 8.02491 11.7925 9.78923V10.7235C11.7925 10.8762 11.9163 11 12.0689 11H17.9052C18.0578 11 18.1816 10.8762 18.1816 10.7235V9.78927C18.1816 8.02491 16.7514 6.59467 14.987 6.59467Z" fill="#CBD7E2"/>
</svg>
