<svg width="21" height="21" viewBox="0 0 21 21" fill="none" xmlns="http://www.w3.org/2000/svg">
<path d="M5.56576 6.49721C6.1465 5.91663 6.82282 5.46059 7.57635 5.14181C8.35715 4.81169 9.18574 4.64426 10.0393 4.64426C10.8929 4.64426 11.7215 4.81169 12.5022 5.14181C13.2558 5.46059 13.9323 5.91663 14.5128 6.49721C14.7638 6.74813 14.9914 7.01713 15.1947 7.30237V6.6239C15.1947 4.44833 13.4247 2.6784 11.2492 2.6784H6.35483V0.941406L0 4.94558L4.55457 7.81539C4.83077 7.3353 5.16916 6.89381 5.56576 6.49721Z" fill="#CBD7E2"/>
<path d="M20.077 16.9958L15.5224 14.126C15.2462 14.6061 14.9078 15.0474 14.5112 15.4442C13.9305 16.0248 13.2542 16.4808 12.5006 16.7994C11.7198 17.1297 10.8913 17.2971 10.0377 17.2971C9.18414 17.2971 8.35555 17.1297 7.57475 16.7994C6.82122 16.4808 6.14474 16.0248 5.56416 15.4442C5.31324 15.1933 5.0856 14.9243 4.88232 14.639V15.3175C4.88232 17.4931 6.65225 19.263 8.82782 19.263H13.7223V21L20.077 16.9958Z" fill="#CBD7E2"/>
<path d="M4.8877 10.9708C4.8877 13.8144 7.19286 16.1197 10.0365 16.1197C12.8803 16.1197 15.1854 13.8144 15.1854 10.9708C15.1854 8.12716 12.8803 5.82184 10.0365 5.82184C7.19286 5.82184 4.8877 8.12716 4.8877 10.9708ZM8.07614 10.1339C8.07614 9.40643 8.60402 8.79475 9.65995 8.64677V7.94502H10.5676V8.6339C11.044 8.67894 11.5075 8.80118 11.8744 9.00722L11.4173 10.108C10.9732 9.88269 10.5547 9.77331 10.1619 9.77331C9.71785 9.77331 9.57615 9.90199 9.57615 10.0566C9.57615 10.5973 12.0676 10.1466 12.0676 11.8076C12.0676 12.503 11.5654 13.1081 10.5676 13.2819V13.9965H9.65995V13.3141C9.0161 13.2755 8.39171 13.1016 8.00537 12.8634L8.49465 11.7562C8.91959 12.0072 9.48608 12.1682 9.98179 12.1682C10.413 12.1682 10.5676 12.078 10.5676 11.9236C10.5676 11.357 8.07614 11.8141 8.07614 10.1339Z" fill="#CBD7E2"/>
</svg>
