<svg width="18" height="19" viewBox="0 0 18 19" fill="none" xmlns="http://www.w3.org/2000/svg">
<path fill-rule="evenodd" clip-rule="evenodd" d="M17.9432 8.53007C17.9148 8.27704 17.6197 8.08691 17.3646 8.08691C16.5399 8.08691 15.808 7.60263 15.501 6.85367C15.1875 6.08656 15.3897 5.19193 16.0043 4.62809C16.1978 4.45121 16.2213 4.15512 16.0591 3.94945C15.6369 3.4134 15.1571 2.92918 14.6333 2.50953C14.4281 2.34491 14.1272 2.36781 13.9493 2.56478C13.4128 3.1589 12.4492 3.37971 11.7046 3.06902C10.9297 2.74306 10.4411 1.95787 10.4889 1.11502C10.5047 0.850273 10.3112 0.620087 10.0472 0.589347C9.37496 0.511591 8.69679 0.50918 8.02251 0.583989C7.76158 0.612787 7.5681 0.837549 7.57687 1.09894C7.6062 1.93349 7.11168 2.70496 6.3445 3.01919C5.6088 3.3197 4.65196 3.10077 4.11658 2.51194C3.93963 2.31799 3.64355 2.29414 3.4374 2.45481C2.898 2.87802 2.40743 3.36263 1.98141 3.89426C1.81525 4.10094 1.8397 4.40051 2.03512 4.57833C2.66152 5.14559 2.86378 6.04798 2.53836 6.82393C2.22767 7.56371 1.45949 8.0405 0.580067 8.0405C0.294695 8.03132 0.0914322 8.22286 0.0602228 8.48232C-0.0189393 9.15848 -0.019877 9.84743 0.0563383 10.5291C0.0846009 10.7832 0.388591 10.9716 0.646504 10.9716C1.43022 10.9516 2.18266 11.4368 2.49831 12.2049C2.81295 12.9721 2.61069 13.8661 1.99507 14.4305C1.80253 14.6073 1.77808 14.903 1.94036 15.1086C2.35854 15.6413 2.8384 16.1259 3.36413 16.5491C3.57034 16.7152 3.87038 16.6918 4.04913 16.4948C4.5876 15.8992 5.55114 15.6788 6.2928 15.9901C7.06962 16.3151 7.55825 17.1002 7.51043 17.9435C7.49483 18.2084 7.68925 18.439 7.95212 18.4693C8.29603 18.5094 8.64201 18.5294 8.98893 18.5294C9.31823 18.5294 9.64761 18.5113 9.97691 18.4747C10.2379 18.4459 10.4313 18.2211 10.4225 17.9593C10.3923 17.1252 10.8877 16.3537 11.6539 16.04C12.3945 15.7375 13.3473 15.9589 13.8828 16.5471C14.0607 16.7407 14.3547 16.7641 14.562 16.6039C15.1004 16.1817 15.59 15.6975 16.018 15.1644C16.1841 14.9582 16.1607 14.6582 15.9642 14.4804C15.3378 13.9132 15.1346 13.0106 15.46 12.2352C15.7659 11.5053 16.5056 11.0152 17.3011 11.0152L17.4125 11.018C17.6705 11.039 17.9079 10.8402 17.9392 10.5768C18.0185 9.90007 18.0194 9.21172 17.9432 8.53007ZM9.01404 12.5505C7.3586 12.5505 6.01205 11.2039 6.01205 9.54846C6.01205 7.89309 7.3586 6.54646 9.01404 6.54646C10.6694 6.54646 12.016 7.89309 12.016 9.54846C12.016 11.2039 10.6694 12.5505 9.01404 12.5505Z" fill="#CBD7E2"/>
</svg>
