<svg viewBox="0 0 533 534" xmlns="http://www.w3.org/2000/svg"><path d="m533 518c0 8.42-6.83 15.2-15.2 15.2h-503c-8.42 0-15.2-6.83-15.2-15.2v-503c0-8.42 6.83-15.2 15.2-15.2h503c8.42 0 15.2 6.83 15.2 15.2v503z" fill="#fff"/><circle cx="106" cy="106" r="48.8" fill="#C2F9F6"/><path d="m183 72.7c-3.23 0-5.85 2.62-5.85 5.85v10.2c0 3.24 2.62 5.86 5.85 5.86h201c3.23 0 5.85-2.63 5.85-5.86v-10.2c0-3.23-2.62-5.85-5.85-5.85zm-.01 38.3c-3.23 0-5.85 2.62-5.85 5.85v10.2c0 3.23 2.62 5.85 5.85 5.85h224c3.24 0 5.86-2.62 5.86-5.85v-10.2c0-3.23-2.63-5.85-5.86-5.85zm-122 88.2c-3.24 0-5.86 2.63-5.86 5.86v266c0 3.23 2.63 5.85 5.86 5.85h410c3.24 0 5.86-2.62 5.86-5.85v-266c0-3.24-2.63-5.86-5.86-5.86z" fill="#f2f2f2"/><g fill="#ddd"><circle cx="323" cy="450" r="7"/><circle cx="295" cy="450" r="7"/><circle cx="266" cy="450" r="7"/><circle cx="238" cy="450" r="7"/><circle cx="209" cy="450" r="7"/><path d="m266 297c-16.6-28.5-63.4-20.2-63.4 15.6 0 24.6 29.4 49.8 63.4 83.5 34-33.7 63.4-58.9 63.4-83.5 0-35.9-46.9-43.9-63.4-15.6z"/></g></svg>