<svg viewBox="0 0 872 872" xmlns="http://www.w3.org/2000/svg"><circle cx="436" cy="436" r="436" fill="#fff"/><path fill="#A9D7F7" d="m378 143c-15.7 0-28.5 12.7-28.5 28.5s12.7 28.5 28.5 28.5h29v14.1c-48.4 6.21-93.1 28-128 63-41.8 42-64.9 97.8-64.9 157 0 59.5 23 115 64.9 157 42 41.8 97.8 64.9 157 64.9 59.5 0 115-23 157-64.9 41.8-42 64.9-97.8 64.9-157 0-59.5-23-115-64.9-157-35.3-35.1-80.4-57.1-129-63.2v-13.9h30c15.7 0 28.5-12.7 28.5-28.5s-12.7-28.5-28.5-28.5h-116zm58 127c43.7 0 85 17.1 116 48.1 31 30.9 48.1 72.1 48.1 116 0 43.7-17.1 85-48.1 116-30.9 31-72.3 48.1-116 48.1s-85-17.1-116-48.1c-31-30.9-48.1-72.1-48.1-116 0-43.7 17.2-85 48.1-116s72.1-48.1 116-48.1zm88.6 71.1c-5.98.0269-12 1.91-17.1 5.79l-86.8 65.5c-12.6 9.6-15.2 27.6-5.61 40.2 5.6 7.46 14.2 11.4 22.9 11.4 6.1 0 12.1-1.89 17.3-5.79l86.8-65.5c12.6-9.6 15.2-27.6 5.61-40.2-5.7-7.5-14.4-11.4-23.1-11.4z"/></svg>