<svg viewBox="0 0 60 60" xmlns="http://www.w3.org/2000/svg"><path d="m43.1 26.1c-5.1 0-9.24-4.14-9.24-9.24s4.14-9.24 9.24-9.24c5.1 0 9.24 4.14 9.24 9.24s-4.14 9.24-9.24 9.24m0-15.4c-3.4 0-6.16 2.76-6.16 6.16s2.76 6.16 6.16 6.16c3.4 0 6.16-2.76 6.16-6.16s-2.76-6.16-6.16-6.16m9.17 49.3h-44.6c-4.25 0-7.7-3.46-7.7-7.7v-5.62c0-.409.163-.8.452-1.09l20.3-20.3c1.45-1.46 3.39-2.26 5.44-2.26s3.99.8 5.44 2.25l24 24c2.35 2.35 2.91 5.94 1.39 8.93-.124.242-.311.448-.541.597-1.25.798-2.68 1.22-4.14 1.22m-49.2-12.7v4.98c0 2.55 2.07 4.62 4.62 4.62h44.6c.73 0 1.45-.181 2.11-.524.686-1.71.308-3.66-1-4.96l-24-24c-1.74-1.74-4.79-1.74-6.53.001zm49.2 12.7h-28.7c-.623 0-1.18-.376-1.42-.95-.238-.577-.107-1.24.333-1.68l22.8-22.8c1.45-1.46 3.39-2.26 5.44-2.26 2.06 0 3.99.801 5.44 2.26l3.27 3.27c.29.289.452.679.452 1.09v13.4c0 4.25-3.45 7.7-7.7 7.7m-24.9-3.08h24.9c2.54 0 4.62-2.07 4.62-4.62v-12.8l-2.82-2.82c-1.74-1.74-4.79-1.74-6.53.002zm24.9 3.08h-44.6c-4.25 0-7.7-3.46-7.7-7.7v-44.6c0-4.24 3.45-7.7 7.7-7.7h44.6c4.24 0 7.7 3.46 7.7 7.7v44.6c0 4.24-3.45 7.7-7.7 7.7m-44.6-56.9c-2.55 0-4.62 2.07-4.62 4.62v44.6c0 2.55 2.07 4.62 4.62 4.62h44.6c2.54 0 4.62-2.07 4.62-4.62v-44.6c0-2.55-2.07-4.62-4.62-4.62z" fill="#22d5da"/></svg>