<svg viewBox="0 0 227 227" xmlns="http://www.w3.org/2000/svg">
<circle cx="114" cy="114" r="114" fill="#fff"/><path d="m132 144c-2.28 0-4.54-1.01-6.05-2.95l-18.3-23.4c-1.01-1.3-1.58-2.88-1.62-4.52l-.582-22c-.111-4.24 3.23-7.77 7.47-7.88 4.28-.1 7.76 3.24 7.88 7.47l.515 19.5 16.7 21.4c2.61 3.34 2.02 8.16-1.32 10.8-1.41 1.1-3.07 1.63-4.72 1.63zm-18.3 28.4c-32.3 0-58.6-26.3-58.6-58.6 0-32.3 26.3-58.6 58.6-58.6 32.3 0 58.6 26.3 58.6 58.6.001 32.3-26.3 58.6-58.6 58.6zm0-102c-23.8 0-43.2 19.4-43.2 43.2 0 23.8 19.4 43.2 43.2 43.2 23.8 0 43.2-19.4 43.2-43.2-.001-23.8-19.4-43.2-43.2-43.2z" fill="#c1c1f4"/></svg>