<svg viewBox="0 0 13.3 16" xmlns="http://www.w3.org/2000/svg"><path d="m6.65 0c-1.1 0-2 .898-2 2 0 1.1.897 2 2 2 1.1 0 2-.897 2-2 0-1.1-.897-2-2-2zm.0059 4.67c-1.83 0-3.33 1.5-3.33 3.33v1.33c-1e-6.368.298.668.666.668h.656v2.67c0 .369.298.668.666.668h2.67c.368 0 .668-.299.668-.668v-2.67h.666c.368 0 .668-.299.668-.668v-1.33c0-1.84-1.5-3.33-3.33-3.33zm-4.1 6.5c-2.12.611-2.56 1.51-2.56 2.15 0 1.83 3.46 2.67 6.67 2.67s6.67-.835 6.67-2.67c0-.63-.424-1.51-2.44-2.12h-.0137l-.385 1.28c1.23.373 1.49.777 1.49.842 0 .343-1.83 1.33-5.33 1.33-3.5 0-5.33-.99-5.33-1.33 0-.068.278-.492 1.6-.873z" fill="#cfd9e6"/></svg>