<svg viewBox="0 0 811 232" xmlns="http://www.w3.org/2000/svg"><path d="m811 209c0 12.7-10.3 23-23 23h-765c-12.7 0-23-10.3-23-23v-186c0-12.7 10.3-23 23-23h765c12.7 0 23 10.3 23 23v186z" fill="#fff"/><path d="m117 172c-2.35 0-4.69-.893-6.49-2.67-3.32-3.29-6.57-6.48-9.74-9.57-23.5-23-42.1-41.2-42.1-61.8.005-22.5 18-34.6 34.9-34.6 8.84 0 17 3.03 23.5 8.42 6.4-5.36 14.6-8.36 23.4-8.36 9 0 17.5 3.14 23.9 8.84 7.13 6.36 11 15.5 11 25.7-.01 20.6-18.6 38.7-42.2 61.7-3.17 3.09-6.43 6.28-9.74 9.57-1.8 1.78-4.14 2.67-6.49 2.67zm-23.4-90.1c-6.14 0-16.5 3.4-16.5 16.2-.003 12.8 17 29.4 36.6 48.6 1.11 1.08 2.22 2.17 3.35 3.28 1.13-1.1 2.25-2.2 3.35-3.28 19.6-19.2 36.6-35.7 36.6-48.6.002-5.04-1.64-9.06-4.88-12-2.97-2.65-7.2-4.17-11.6-4.17-3.14 0-10.9.848-15.5 8.69-1.65 2.83-4.68 4.57-7.96 4.57-3.28 0-6.31-1.74-7.96-4.57-4.6-7.89-12.4-8.74-15.5-8.74z" fill="#C3B3F4"/><path d="m396 133c-2.8-3.86-4.2-9.44-4.2-16.7 0-7.26 1.4-12.8 4.2-16.7 2.8-3.86 6.86-5.79 12.2-5.79 5.31 0 9.37 1.93 12.2 5.79s4.2 9.42 4.2 16.7c0 7.3-1.4 12.9-4.2 16.7s-6.86 5.79-12.2 5.79-9.37-1.93-12.2-5.79zm17.4-5.23c1.1-2.4 1.65-6.24 1.65-11.5 0-5.31-.55-9.15-1.65-11.5-1.1-2.36-2.85-3.55-5.26-3.55s-4.16 1.19-5.26 3.58c-1.1 2.39-1.65 6.21-1.65 11.5 0 5.27.549 9.11 1.65 11.5 1.1 2.41 2.85 3.61 5.26 3.61s4.16-1.2 5.26-3.61zm-54.8 5.23c-2.8-3.86-4.2-9.44-4.2-16.7 0-7.26 1.4-12.8 4.2-16.7 2.8-3.86 6.86-5.79 12.2-5.79 5.31 0 9.37 1.93 12.2 5.79s4.2 9.42 4.2 16.7c0 7.3-1.4 12.9-4.2 16.7s-6.86 5.79-12.2 5.79c-5.31 0-9.37-1.93-12.2-5.79zm17.4-5.23c1.1-2.4 1.65-6.24 1.65-11.5 0-5.31-.55-9.15-1.65-11.5-1.1-2.36-2.85-3.55-5.26-3.55-2.41 0-4.16 1.19-5.26 3.58-1.1 2.39-1.65 6.21-1.65 11.5 0 5.27.549 9.11 1.65 11.5 1.1 2.41 2.85 3.61 5.26 3.61 2.41.001 4.16-1.2 5.26-3.61zm-54.8 5.23c-2.8-3.86-4.2-9.44-4.2-16.7 0-7.26 1.4-12.8 4.2-16.7 2.8-3.86 6.86-5.79 12.2-5.79 5.31 0 9.37 1.93 12.2 5.79s4.2 9.42 4.2 16.7c0 7.3-1.4 12.9-4.2 16.7s-6.86 5.79-12.2 5.79-9.37-1.93-12.2-5.79zm17.4-5.23c1.1-2.4 1.65-6.24 1.65-11.5 0-5.31-.55-9.15-1.65-11.5-1.1-2.36-2.85-3.55-5.26-3.55-2.41 0-4.16 1.19-5.26 3.58-1.1 2.39-1.65 6.21-1.65 11.5 0 5.27.549 9.11 1.65 11.5 1.1 2.41 2.85 3.61 5.26 3.61 2.41.001 4.16-1.2 5.26-3.61zm-28.2 1.9c.996 1.18 1.49 2.9 1.49 5.14 0 4.31-1.56 8.09-4.67 11.3-.622.621-1.29.934-1.99.934-.706 0-1.32-.24-1.84-.717-.52-.477-.778-1.05-.778-1.71 0-.623.228-1.16.685-1.62 1.37-1.41 2.28-2.99 2.74-4.73-1.41-.125-2.55-.643-3.42-1.56-.871-.912-1.31-2.07-1.31-3.48 0-1.54.487-2.81 1.46-3.83.974-1.02 2.19-1.52 3.64-1.52 1.66 0 2.99.591 3.98 1.77zm-20.7-18c2.12 1.18 3.75 2.83 4.92 4.95 1.16 2.12 1.74 4.56 1.74 7.34 0 2.9-.685 5.48-2.05 7.72s-3.29 3.98-5.76 5.23c-2.47 1.24-5.32 1.87-8.56 1.87-2.57 0-5.08-.395-7.53-1.18-2.45-.787-4.56-1.89-6.35-3.3-.623-.455-1.06-.943-1.31-1.46-.249-.52-.374-1.15-.374-1.9 0-1.08.301-2 .903-2.77.601-.768 1.34-1.15 2.21-1.15.498 0 .954.074 1.37.219s.954.404 1.62.777c1.66.996 3.17 1.77 4.54 2.33s2.86.84 4.48.84c2.53 0 4.45-.58 5.76-1.74s1.96-2.88 1.96-5.17c0-2.16-.675-3.86-2.02-5.1-1.35-1.24-3.16-1.87-5.44-1.87-1.41 0-2.7.177-3.86.529-1.16.354-2.43.945-3.8 1.77-.871.498-1.74.748-2.61.748-.996 0-1.84-.301-2.52-.902s-1.03-1.4-1.03-2.4v-18.1c0-1.45.394-2.57 1.18-3.36.788-.787 1.91-1.18 3.36-1.18h20c3.07 0 4.6 1.22 4.6 3.67 0 2.49-1.54 3.73-4.6 3.73h-15.1v9.77c1.99-1.12 4.34-1.68 7.03-1.68 2.7.001 5.1.593 7.22 1.78zm-30.7 22.7c0 2.62-1.54 3.92-4.6 3.92h-23.2c-1.29 0-2.31-.383-3.08-1.15-.768-.768-1.15-1.73-1.15-2.89 0-1.49.601-2.86 1.8-4.11l13.7-14.5c3.07-3.24 4.6-6.22 4.6-8.96 0-1.7-.478-3-1.43-3.89-.955-.892-2.34-1.34-4.17-1.34-1.58 0-3.03.271-4.36.81-1.33.539-2.86 1.33-4.6 2.36-.706.415-1.24.706-1.62.871-.374.167-.809.249-1.31.249-.871 0-1.62-.404-2.24-1.21-.623-.81-.934-1.75-.934-2.83 0-.788.134-1.44.404-1.96.27-.518.716-.984 1.34-1.4 1.87-1.37 4.01-2.46 6.44-3.27 2.43-.81 4.86-1.21 7.31-1.21 2.95 0 5.53.498 7.75 1.49 2.22.995 3.93 2.42 5.13 4.26 1.2 1.85 1.8 3.97 1.8 6.38 0 2.53-.529 4.88-1.59 7.03s-2.83 4.56-5.32 7.22l-9.77 10.3h14.4c3.07-.001 4.6 1.28 4.6 3.86z" fill="#eee"/><path d="m687 117c-2.01-2.3-3.02-5.65-3.02-10.1 0-4.27 1.02-7.56 3.05-9.86 2.03-2.3 4.81-3.45 8.34-3.45 3.57 0 6.36 1.15 8.37 3.45 2.01 2.3 3.02 5.61 3.02 9.93 0 4.4-1.01 7.74-3.02 10-2.01 2.28-4.8 3.42-8.37 3.42-3.57-.001-6.36-1.15-8.37-3.45zm11.2-4.14c.581-1.16.872-3.11.872-5.85 0-2.61-.302-4.51-.902-5.69-.603-1.18-1.52-1.77-2.77-1.77s-2.16.581-2.74 1.74c-.581 1.16-.871 3.07-.871 5.73 0 2.7.29 4.64.871 5.82s1.49 1.77 2.74 1.77c1.29 0 2.22-.58 2.8-1.74zm1.74 26.5c-.871 0-1.63-.322-2.27-.965-.644-.643-.965-1.44-.965-2.4 0-.787.249-1.62.747-2.49l22-38c.871-1.58 2.03-2.36 3.48-2.36.912 0 1.69.321 2.33.965.643.644.964 1.44.964 2.4 0 .789-.248 1.62-.746 2.49l-22 38c-.955 1.58-2.14 2.36-3.55 2.36zm19.2-4.2c-2.01-2.3-3.02-5.65-3.02-10.1 0-4.31 1-7.61 3.02-9.9 2.01-2.28 4.8-3.42 8.37-3.42 3.52 0 6.31 1.15 8.34 3.45 2.03 2.3 3.05 5.61 3.05 9.93 0 4.36-1.01 7.69-3.02 9.99-2.01 2.3-4.8 3.46-8.37 3.46-3.57.001-6.36-1.15-8.37-3.45zm11.2-4.14c.581-1.16.872-3.11.872-5.85 0-2.65-.303-4.57-.902-5.76-.603-1.18-1.52-1.78-2.77-1.78-1.25 0-2.17.592-2.77 1.78-.603 1.18-.902 3.1-.902 5.76 0 2.74.289 4.69.871 5.85.58 1.16 1.51 1.74 2.8 1.74 1.29.001 2.22-.582 2.8-1.74zm-50.7 3.24c0 2.62-1.54 3.92-4.6 3.92h-23.2c-1.29 0-2.31-.383-3.08-1.15-.769-.768-1.15-1.73-1.15-2.89 0-1.49.602-2.86 1.8-4.11l13.7-14.5c3.07-3.24 4.6-6.22 4.6-8.96 0-1.7-.478-3-1.43-3.89-.955-.892-2.35-1.34-4.17-1.34-1.58 0-3.03.271-4.36.81s-2.86 1.33-4.6 2.36c-.705.415-1.24.706-1.62.871-.374.167-.81.249-1.31.249-.871 0-1.62-.404-2.24-1.21-.622-.81-.934-1.75-.934-2.83 0-.788.134-1.44.404-1.96.27-.518.716-.984 1.34-1.4 1.87-1.37 4.01-2.46 6.44-3.27 2.43-.81 4.86-1.21 7.31-1.21 2.94 0 5.53.498 7.75 1.49 2.22.995 3.93 2.42 5.14 4.26 1.2 1.85 1.8 3.97 1.8 6.38 0 2.53-.529 4.88-1.59 7.03-1.06 2.16-2.83 4.56-5.32 7.22l-9.77 10.3h14.4c3.07-.001 4.6 1.28 4.6 3.86zm-38.3-38.8c.705.746 1.06 1.7 1.06 2.86 0 1.2-.333 2.39-.996 3.55l-19.4 34.4c-.457.871-1.05 1.52-1.77 1.93-.727.414-1.48.623-2.27.623-1.2 0-2.28-.428-3.24-1.28-.955-.85-1.43-1.9-1.43-3.14 0-.871.228-1.7.686-2.49l17-29.8h-17.2c-3.03 0-4.54-1.29-4.54-3.86 0-2.61 1.51-3.92 4.54-3.92h24.6c1.28 0 2.28.373 2.98 1.12zm-58.4 26.1c0-2.45 1.47-3.67 4.42-3.67h12.2c2.94 0 4.42 1.22 4.42 3.67 0 2.45-1.47 3.67-4.42 3.67h-12.2c-2.95 0-4.42-1.22-4.42-3.67z" fill="#b7edb7"/><path d="m535 174c-.783 0-1.42-.634-1.42-1.42v-109c0-.783.634-1.42 1.42-1.42s1.42.635 1.42 1.42v109c0 .784-.634 1.42-1.42 1.42z" fill="#F2F2F2"/></svg>