<svg viewBox="0 0 558 232" xmlns="http://www.w3.org/2000/svg"><g fill="#fff"><path d="m442 0h-326c-64 0-116 52.2-116 116 0 63.9 51.7 113 116 116h326c.098 0 .193-.646.291-.646 64 0 116-51.9 116-116 .001-64-51.9-116-116-116z"/><path d="m116 49.7c36.2 0 65.5 29.3 65.5 65.5 0 36.2-29.3 65.5-65.5 65.5-36.2 0-65.5-29.3-65.5-65.5.001-36.2 29.3-65.5 65.5-65.5z" fill="#F29CE2"/><path d="m113 136c-1.03 0-2.02-.408-2.74-1.14l-20.4-20.4c-1.52-1.52-1.52-3.98 0-5.49 1.52-1.52 3.98-1.52 5.49 0l17.7 17.7 28.9-28.9c1.52-1.52 3.98-1.52 5.49 0 1.52 1.52 1.52 3.98 0 5.49l-31.7 31.7c-.727.729-1.72 1.14-2.75 1.14z"/></g><path d="m378 101c0 2.61-1.52 3.92-4.54 3.92h-21.3c-3.07 0-4.6-1.31-4.6-3.92 0-2.57 1.53-3.86 4.6-3.86h5.79v-25.5l-5.48 3.3c-.622.373-1.24.561-1.87.561-1.04 0-1.92-.437-2.64-1.31-.727-.871-1.09-1.85-1.09-2.92 0-1.45.644-2.55 1.93-3.3l9.83-5.91c1.45-.871 2.9-1.31 4.36-1.31 1.37 0 2.49.426 3.36 1.28.871.851 1.31 2 1.31 3.45v31.6h5.79c3.03.001 4.54 1.29 4.54 3.86zm-41.5-14.8c1.39 1.85 2.09 4.1 2.09 6.75 0 2.53-.654 4.73-1.96 6.6s-3.19 3.31-5.63 4.32c-2.45 1.02-5.29 1.52-8.52 1.52-2.7 0-5.28-.395-7.75-1.18-2.47-.788-4.6-1.89-6.38-3.3-.622-.456-1.07-.954-1.34-1.49s-.404-1.16-.404-1.87c0-1.08.312-2 .934-2.77.623-.768 1.37-1.15 2.24-1.15.498 0 .955.073 1.37.218.415.146.934.404 1.56.778 1.82 1.04 3.4 1.83 4.73 2.36 1.33.54 2.88.81 4.67.81 2.53 0 4.38-.467 5.54-1.4 1.16-.934 1.74-2.4 1.74-4.39 0-1.95-.603-3.36-1.81-4.23-1.2-.871-3.13-1.31-5.79-1.31h-3.67c-1.08 0-1.93-.373-2.55-1.12-.623-.747-.934-1.64-.934-2.68 0-.996.311-1.87.934-2.61.621-.747 1.47-1.12 2.55-1.12h2.61c2.53 0 4.41-.436 5.63-1.31 1.22-.871 1.84-2.22 1.84-4.04 0-1.74-.519-3.1-1.56-4.08-1.04-.975-2.49-1.46-4.36-1.46-1.54 0-2.97.271-4.29.81-1.33.539-2.86 1.33-4.6 2.36-.622.374-1.14.634-1.56.778-.416.146-.871.218-1.37.218-.871 0-1.62-.383-2.24-1.15-.623-.768-.934-1.69-.934-2.77 0-.747.134-1.38.404-1.9s.715-1 1.34-1.46c1.74-1.41 3.83-2.51 6.25-3.3 2.43-.788 4.91-1.18 7.44-1.18 2.94 0 5.54.488 7.78 1.46 2.24.975 3.96 2.35 5.17 4.14s1.8 3.86 1.8 6.22c0 2.36-.612 4.43-1.84 6.19-1.22 1.76-2.92 3.04-5.07 3.83 2.57.748 4.55 2.04 5.94 3.89zm-62.7 13.5c-2.8-3.86-4.2-9.44-4.2-16.7 0-7.26 1.4-12.8 4.2-16.7 2.8-3.86 6.86-5.79 12.2-5.79 5.31 0 9.37 1.93 12.2 5.79s4.2 9.42 4.2 16.7c0 7.3-1.4 12.9-4.2 16.7-2.8 3.86-6.86 5.79-12.2 5.79s-9.37-1.93-12.2-5.79zm17.4-5.23c1.1-2.4 1.65-6.24 1.65-11.5 0-5.31-.55-9.15-1.65-11.5-1.1-2.36-2.85-3.55-5.26-3.55-2.41 0-4.16 1.19-5.26 3.58-1.1 2.39-1.65 6.21-1.65 11.5 0 5.27.549 9.11 1.65 11.5 1.1 2.41 2.85 3.61 5.26 3.61 2.41.002 4.16-1.2 5.26-3.61zm-28.2 1.9c.996 1.18 1.49 2.9 1.49 5.14 0 4.31-1.56 8.09-4.67 11.3-.622.622-1.29.934-1.99.934-.706 0-1.32-.239-1.84-.716-.52-.478-.778-1.05-.778-1.71 0-.622.228-1.16.685-1.62 1.37-1.41 2.28-2.99 2.74-4.73-1.41-.125-2.55-.643-3.42-1.56-.871-.912-1.31-2.07-1.31-3.48 0-1.54.487-2.81 1.46-3.83.974-1.02 2.19-1.52 3.64-1.52 1.66-.002 2.99.589 3.98 1.77zm-14.1 4.64c0 2.61-1.54 3.92-4.6 3.92h-23.2c-1.29 0-2.31-.383-3.08-1.15s-1.15-1.73-1.15-2.89c0-1.49.601-2.86 1.8-4.11l13.7-14.5c3.07-3.24 4.6-6.22 4.6-8.96 0-1.7-.478-3-1.43-3.89-.955-.892-2.34-1.34-4.17-1.34-1.58 0-3.03.271-4.36.81-1.33.539-2.86 1.33-4.6 2.36-.706.415-1.24.706-1.62.871-.374.167-.809.249-1.31.249-.871 0-1.62-.404-2.24-1.21-.623-.81-.934-1.75-.934-2.83 0-.788.134-1.44.404-1.96.27-.518.716-.984 1.34-1.4 1.87-1.37 4.01-2.46 6.44-3.27 2.43-.81 4.86-1.21 7.31-1.21 2.95 0 5.53.498 7.75 1.49 2.22.995 3.93 2.42 5.13 4.26 1.2 1.85 1.8 3.97 1.8 6.38 0 2.53-.529 4.88-1.59 7.03s-2.83 4.56-5.32 7.22l-9.77 10.3h14.4c3.07 0 4.6 1.29 4.6 3.86zm216 62.9c-1.89-.416-3.54-1.09-4.96-2.01-.626-.377-1.1-.878-1.44-1.51-.334-.626-.504-1.33-.504-2.13 0-.966.274-1.76.813-2.42.547-.647 1.22-.976 2.01-.976.541 0 1.09.096 1.63.284.544.187 1.11.406 1.7.655 1.17.546 2.32.977 3.45 1.29 1.13.313 2.53.471 4.2.471 1.46 0 2.6-.228 3.42-.687.815-.463 1.22-1.09 1.22-1.89 0-.584-.179-1.05-.532-1.41-.356-.354-1.02-.68-1.98-.972s-2.49-.649-4.58-1.06c-3.72-.713-6.4-1.78-8.03-3.2-1.63-1.42-2.45-3.41-2.45-5.96 0-1.88.577-3.57 1.73-5.08 1.15-1.5 2.73-2.69 4.74-3.54 2.01-.856 4.27-1.28 6.78-1.28 1.79 0 3.55.229 5.27.691 1.71.463 3.24 1.11 4.58 1.94 1.29.794 1.95 1.97 1.95 3.51 0 1-.277 1.84-.82 2.51-.542.669-1.21 1-2.01 1-.968 0-2.11-.374-3.45-1.13-1.05-.542-2-.948-2.85-1.22-.858-.271-1.87-.406-3.04-.406-1.3 0-2.32.24-3.07.723-.751.482-1.13 1.14-1.13 1.98 0 .877.437 1.55 1.32 2.01.881.462 2.58.92 5.08 1.38 2.8.544 5 1.2 6.59 1.98 1.59.772 2.73 1.74 3.45 2.92.71 1.18 1.07 2.66 1.07 4.46 0 2.97-1.22 5.33-3.67 7.09-2.45 1.76-5.72 2.64-9.82 2.64-2.56 0-4.78-.207-6.65-.629zm-8.5-30.5c.729.651 1.09 1.62 1.09 2.92 0 1.38-.335 2.4-1 3.07-.67.671-1.86 1.09-3.58 1.26l-1.88.188c-2.3.249-3.96 1-4.99 2.26s-1.54 2.87-1.54 4.83v12c0 1.46-.448 2.57-1.35 3.32-.899.754-2.02 1.13-3.36 1.13-1.38 0-2.52-.377-3.42-1.13-.897-.752-1.35-1.86-1.35-3.32v-23c0-1.38.46-2.45 1.38-3.2.917-.754 2.03-1.13 3.32-1.13 1.26 0 2.3.37 3.14 1.1.831.731 1.25 1.75 1.25 3.04v1.69c.752-1.8 1.9-3.18 3.42-4.14 1.52-.961 3.19-1.51 4.99-1.63l.879-.062c1.25-.083 2.25.202 2.98.846zm-28 22.4c.521.672.782 1.53.782 2.57 0 .715-.21 1.37-.627 1.98-.419.604-1 1.12-1.76 1.53-1.43.752-3.07 1.37-4.96 1.85-1.88.48-3.62.723-5.2.723-3.35 0-6.27-.648-8.75-1.94-2.49-1.3-4.4-3.15-5.74-5.55-1.34-2.41-2.01-5.24-2.01-8.5 0-3.14.646-5.92 1.94-8.34 1.3-2.43 3.1-4.32 5.4-5.68 2.3-1.36 4.91-2.04 7.84-2.04 2.8 0 5.26.616 7.37 1.85 2.11 1.24 3.75 2.99 4.92 5.27 1.17 2.28 1.76 4.94 1.76 8 0 .922-.223 1.62-.659 2.1-.44.481-1.06.726-1.85.726h-17.6c.289 2.47 1.04 4.26 2.26 5.36 1.21 1.11 2.95 1.66 5.21 1.66 1.21 0 2.3-.146 3.26-.438.965-.293 2.03-.689 3.2-1.19.589-.249 1.15-.47 1.69-.655.543-.188 1.02-.285 1.44-.285.846-.002 1.52.337 2.05 1zm-17.2-15.2c-1.09 1.15-1.74 2.81-1.94 4.99h12.1c-.13-2.21-.682-3.89-1.67-5.02-.986-1.13-2.38-1.69-4.17-1.69-1.8 0-3.24.573-4.32 1.72zm-20.1-7.37c.664-.458 1.38-.691 2.13-.691 1.17 0 2.22.4 3.13 1.19.919.798 1.38 1.78 1.38 2.95 0 .5-.124 1.06-.38 1.69l-10.3 23.1c-.374.918-.979 1.62-1.82 2.1-.839.479-1.71.723-2.63.723-.967 0-1.85-.24-2.67-.723-.815-.48-1.41-1.18-1.79-2.1l-6.71-15.6-6.46 15.6c-.38.918-.966 1.62-1.76 2.1-.794.479-1.69.723-2.7.723-.965 0-1.86-.24-2.7-.723-.841-.48-1.44-1.18-1.82-2.1l-10.2-23.1c-.255-.584-.379-1.15-.379-1.69 0-1.17.492-2.15 1.48-2.95.979-.794 2.1-1.19 3.35-1.19.837 0 1.6.233 2.29.691.688.46 1.22 1.13 1.6 2.01l6.71 16.9 6.84-16.8c.374-.878.929-1.56 1.66-2.04.731-.475 1.54-.721 2.42-.721.877 0 1.69.229 2.45.691.752.461 1.32 1.15 1.69 2.07l6.96 16.7 6.65-16.9c.373-.878.898-1.55 1.57-2.01zm-73 29.2c-2.47-1.32-4.37-3.18-5.71-5.58-1.34-2.4-2.01-5.24-2.01-8.5 0-3.26.664-6.1 2.01-8.5 1.34-2.4 3.24-4.26 5.71-5.55 2.46-1.3 5.33-1.94 8.59-1.94 3.26 0 6.13.649 8.59 1.94 2.47 1.3 4.37 3.15 5.71 5.55 1.34 2.41 2.01 5.24 2.01 8.5 0 3.26-.671 6.1-2.01 8.5-1.34 2.4-3.24 4.26-5.71 5.58-2.47 1.32-5.33 1.98-8.59 1.98-3.26 0-6.13-.655-8.59-1.98zm15.5-14.1c0-2.97-.596-5.19-1.79-6.65-1.19-1.46-2.9-2.19-5.12-2.19-4.6 0-6.9 2.95-6.9 8.84 0 5.9 2.3 8.84 6.9 8.84 4.6-.003 6.9-2.95 6.9-8.85zm-37.1 14.8c-.898-.752-1.35-1.86-1.35-3.32v-36c0-1.46.449-2.57 1.35-3.32.9-.753 2.04-1.12 3.42-1.12 1.34 0 2.46.372 3.36 1.12.902.754 1.35 1.86 1.35 3.32v36c0 1.46-.444 2.57-1.35 3.32-.896.754-2.02 1.13-3.36 1.13-1.38 0-2.52-.377-3.42-1.13zm-16.7 0c-.902-.752-1.35-1.86-1.35-3.32v-36c0-1.46.445-2.57 1.35-3.32.897-.753 2.04-1.12 3.42-1.12 1.34 0 2.46.372 3.35 1.12.899.754 1.35 1.86 1.35 3.32v36c0 1.46-.446 2.57-1.35 3.32-.899.754-2.02 1.13-3.35 1.13-1.38 0-2.52-.377-3.42-1.13zm-32-.72c-2.47-1.32-4.37-3.18-5.71-5.58-1.34-2.4-2.01-5.24-2.01-8.5 0-3.26.671-6.1 2.01-8.5 1.33-2.4 3.24-4.26 5.71-5.55 2.47-1.3 5.34-1.94 8.6-1.94 3.26 0 6.13.649 8.59 1.94 2.47 1.3 4.37 3.15 5.71 5.55 1.34 2.41 2.01 5.24 2.01 8.5 0 3.26-.666 6.1-2.01 8.5-1.34 2.4-3.24 4.26-5.71 5.58-2.47 1.32-5.33 1.98-8.59 1.98-3.26 0-6.13-.655-8.6-1.98zm15.5-14.1c0-2.97-.593-5.19-1.79-6.65-1.2-1.46-2.9-2.19-5.11-2.19-4.6 0-6.9 2.95-6.9 8.84 0 5.9 2.3 8.84 6.9 8.84 4.6-.003 6.9-2.95 6.9-8.85zm-31.9-20.2c-.754.924-1.13 2.22-1.13 3.89v1.07h4.39c2.84 0 4.27 1.19 4.27 3.57 0 2.34-1.42 3.51-4.27 3.51h-4.39v19.6c0 1.46-.45 2.57-1.35 3.32-.896.754-2.02 1.13-3.35 1.13-1.38 0-2.52-.376-3.42-1.13-.9-.752-1.35-1.86-1.35-3.32v-19.6h-2.5c-2.81 0-4.21-1.17-4.21-3.51 0-2.38 1.4-3.57 4.21-3.57h2.5c0-4.02 1.1-7.18 3.33-9.47 2.22-2.3 5.27-3.6 9.16-3.89l1.62-.125 1.13-.062c2.89 0 4.33 1.11 4.33 3.32 0 2.18-1.21 3.36-3.64 3.58l-1.63.125c-1.72.123-2.95.646-3.7 1.56z" fill="#eee"/></svg>