<svg width="24" height="24" viewBox="0 0 24 24" fill="none" xmlns="http://www.w3.org/2000/svg">
<path d="M21.709 8.84516L21.7084 4.9457L17.9983 3.74234L15.709 0.584473L12 1.79447L8.29089 0.584554L6.00166 3.74234L2.29158 4.9457L2.29102 8.84525L0 12L2.2911 15.1549L2.29158 19.0544L6.00166 20.2577L8.29098 23.4156L12 22.2056L15.7091 23.4155L17.9983 20.2577L21.7084 19.0544L21.709 15.1548L24 12L21.709 8.84516ZM7.81893 10.8887C7.41886 10.4862 7.19587 9.97962 7.19587 9.36879V8.82201C7.19587 8.20648 7.41764 7.6963 7.81536 7.29145C8.21316 6.88669 8.79031 6.68435 9.52429 6.68435C10.2676 6.68435 10.8275 6.88669 11.2251 7.29145C11.6229 7.6963 11.8111 8.20656 11.8111 8.82201V9.36879C11.8111 9.9844 11.6286 10.4922 11.2308 10.8921C10.8331 11.2923 10.264 11.4922 9.5302 11.4922C8.79161 11.4923 8.21907 11.2911 7.81893 10.8887ZM9.92622 16.3996L8.81128 15.8385L13.8607 7.7567L14.9758 8.31781L9.92622 16.3996ZM16.7502 15.1854C16.7502 15.8056 16.5565 16.3158 16.1612 16.7158C15.7658 17.1159 15.2033 17.3157 14.4694 17.3157C13.7309 17.3157 13.1531 17.1147 12.7482 16.7122C12.3436 16.3098 12.135 15.8008 12.135 15.1854V14.6385C12.135 14.0277 12.3433 13.5199 12.7458 13.1151C13.1481 12.7101 13.7199 12.5079 14.4537 12.5079C15.197 12.5079 15.764 12.7092 16.1594 13.1114C16.5547 13.514 16.7502 14.023 16.7502 14.6385V15.1854Z" fill="#2691F4"/>
<path d="M10.0925 9.95641C10.2227 9.79877 10.2728 9.60234 10.2728 9.36704V8.82366C10.2728 8.5886 10.2214 8.38991 10.0888 8.22756C9.95612 8.06522 9.77434 7.98401 9.52819 7.98401C9.28683 7.98401 9.08254 8.06522 8.95008 8.22756C8.81753 8.38991 8.73438 8.5886 8.73438 8.82366V9.36704C8.73438 9.60234 8.82134 9.79877 8.9538 9.95641C9.08635 10.1139 9.281 10.1927 9.53208 10.1927C9.77345 10.1927 9.96219 10.1139 10.0925 9.95641Z" fill="#2691F4"/>
<path d="M14.4578 13.8074C14.2115 13.8074 14.0137 13.8887 13.8813 14.0509C13.7484 14.2133 13.6738 14.4098 13.6738 14.6402V15.1834C13.6738 15.4094 13.758 15.6045 13.9096 15.7693C14.0611 15.9339 14.2499 16.016 14.4677 16.016C14.7612 16.016 14.956 15.9433 15.0603 15.7973C15.1642 15.6515 15.2122 15.4469 15.2122 15.1834V14.6402C15.2122 14.4097 15.1511 14.2133 15.0161 14.0509C14.8812 13.8887 14.6991 13.8074 14.4578 13.8074Z" fill="#2691F4"/>
</svg>
