<svg width="41" height="41" viewBox="0 0 41 41" fill="none" xmlns="http://www.w3.org/2000/svg">
<path d="M32.7999 29.0416C35.4417 29.0416 37.5832 26.9 37.5832 24.2583C37.5832 21.6165 35.4417 19.475 32.7999 19.475C30.1582 19.475 28.0166 21.6165 28.0166 24.2583C28.0166 26.9 30.1582 29.0416 32.7999 29.0416Z" fill="#FDB62F"/>
<path d="M21.1831 5.125H19.8164V18.1083H21.1831V5.125Z" fill="#6B962A"/>
<path d="M20.4996 5.12498H19.1329C16.4911 5.12498 14.3496 2.98345 14.3496 0.341675H15.7163C18.3581 0.341675 20.4996 2.4832 20.4996 5.12498Z" fill="#88B337"/>
<path d="M23.9163 20.8417H14.3496V23.575H23.9163V20.8417Z" fill="#FFA83D"/>
<path d="M25.2835 23.575H15.7168V26.3083H25.2835V23.575Z" fill="#FDB62F"/>
<path d="M23.9163 26.3083H14.3496V29.0417H23.9163V26.3083Z" fill="#FFA83D"/>
<path d="M25.2835 29.0417H15.7168V31.7751H25.2835V29.0417Z" fill="#FDB62F"/>
<path d="M25.2835 31.775H15.7168V34.5083H25.2835V31.775Z" fill="#FFA83D"/>
<path d="M26.6497 34.5083H17.083V37.2416H26.6497V34.5083Z" fill="#FDB62F"/>
<path d="M25.2835 37.2417H15.7168V39.975H25.2835V37.2417Z" fill="#FFA83D"/>
<path d="M12.2998 7.17505H13.6665C17.4406 7.17505 20.4998 10.2344 20.4998 14.0083H19.1331C15.3591 14.0083 12.2998 10.9491 12.2998 7.17505Z" fill="#88B337"/>
<path d="M26.65 0.341675H25.2833C22.6415 0.341675 20.5 2.4832 20.5 5.12498H21.8667C24.5085 5.12498 26.65 2.98345 26.65 0.341675Z" fill="#6B962A"/>
<path d="M21.8667 14.0082H20.5C20.5 10.2341 23.5593 7.17493 27.3333 7.17493H28.7C28.7 10.949 25.6407 14.0082 21.8667 14.0082Z" fill="#6B962A"/>
<path d="M11.6165 26.3083H2.0498V29.0417H11.6165V26.3083Z" fill="#FDB62F"/>
<path d="M11.6165 29.0417H2.0498V31.7751H11.6165V29.0417Z" fill="#FFA83D"/>
<path d="M12.9837 31.775H3.41699V34.5083H12.9837V31.775Z" fill="#FDB62F"/>
<path d="M11.6165 34.5083H2.0498V37.2416H11.6165V34.5083Z" fill="#FFA83D"/>
<path d="M12.9837 37.2417H3.41699V39.975H12.9837V37.2417Z" fill="#FDB62F"/>
<path d="M37.5833 29.0417H28.0166V31.7751H37.5833V29.0417Z" fill="#FDB62F"/>
<path d="M38.9495 31.775H29.3828V34.5083H38.9495V31.775Z" fill="#FFA83D"/>
<path d="M38.9495 34.5083H29.3828V37.2416H38.9495V34.5083Z" fill="#FDB62F"/>
<path d="M38.9495 37.2417H29.3828V39.975H38.9495V37.2417Z" fill="#FFA83D"/>
<path d="M32.7997 26.9916C34.3093 26.9916 35.533 25.7679 35.533 24.2583C35.533 22.7488 34.3093 21.525 32.7997 21.525C31.2901 21.525 30.0664 22.7488 30.0664 24.2583C30.0664 25.7679 31.2901 26.9916 32.7997 26.9916Z" fill="#FFA83D"/>
<path d="M32.7998 26.9917V25.625C33.5549 25.625 34.1665 25.0134 34.1665 24.2583H35.5332C35.5331 25.7678 34.3093 26.9917 32.7998 26.9917Z" fill="#FD7B2F"/>
<path d="M31.4331 24.2583H30.0664C30.0664 22.7489 31.2902 21.525 32.7997 21.525V22.8917C32.0447 22.8917 31.4331 23.5033 31.4331 24.2583Z" fill="#FD7B2F"/>
<path d="M34.1659 7.17499C33.9336 5.77282 32.8348 4.67399 31.4326 4.44168C32.8348 4.20937 33.9336 3.11054 34.1659 1.70837C34.3982 3.11054 35.4971 4.20937 36.8992 4.44168C35.4971 4.67399 34.3982 5.77282 34.1659 7.17499Z" fill="#FDB62F"/>
<path d="M6.83292 22.2083C6.60061 20.8061 5.50178 19.7073 4.09961 19.475C5.50178 19.2427 6.60061 18.1439 6.83292 16.7417C7.06522 18.1439 8.16406 19.2427 9.56622 19.475C8.16406 19.7073 7.0653 20.8061 6.83292 22.2083Z" fill="#FDB62F"/>
<path d="M25.2835 18.1083H15.7168V20.8416H25.2835V18.1083Z" fill="#FDB62F"/>
<path d="M40.9999 16.0583H38.9499V14.0083H37.5832V16.0583H35.5332V17.425H37.5832V19.475H38.9499V17.425H40.9999V16.0583Z" fill="#FDB62F"/>
<path d="M41 39.2917H0V40.6584H41V39.2917Z" fill="#DBDBDB"/>
<path d="M13.6664 16.0583C11.4019 16.0583 9.56641 14.2229 9.56641 11.9583V11.275H10.9331V11.9583C10.9331 13.4678 12.1569 14.6916 13.6664 14.6916V16.0583Z" fill="#DBDBDB"/>
</svg>
