<svg width="41" height="41" viewBox="0 0 41 41" fill="none" xmlns="http://www.w3.org/2000/svg">
<g>
<path d="M36 18.0208V37.9792C36 38.5429 35.6536 39 35.2264 39H0.773599C0.346371 39 0 38.5429 0 37.9792V18.0208C0 17.4571 0.346371 17 0.773599 17H35.2263C35.6536 16.9999 36 17.4568 36 18.0208Z" fill="#2691F4"/>
<path d="M30.3695 4.96423L32.78 4.35116C32.9926 4.2971 33.2181 4.3574 33.3753 4.51051L35.1556 6.24491C35.2311 6.31843 35.3237 6.37176 35.4251 6.40027L37.8192 7.07252C38.0307 7.13194 38.196 7.29714 38.2556 7.50862L38.9287 9.89862C38.9573 10.0002 39.0109 10.0928 39.0846 10.1683L40.8207 11.9455C40.9744 12.1028 41.0349 12.3287 40.9806 12.5419L40.367 14.9474C40.3409 15.0497 40.3409 15.1569 40.367 15.2591L40.9806 17.6645C41.035 17.8776 40.9744 18.1036 40.8207 18.2609L39.0847 20.0379C39.011 20.1133 38.9574 20.2061 38.9288 20.3076L38.2557 22.6976C38.1962 22.9091 38.0307 23.0743 37.8193 23.1337L35.4252 23.8061C35.3238 23.8346 35.2311 23.8881 35.1558 23.9615L33.3753 25.6959C33.2181 25.849 32.9926 25.9094 32.78 25.8552L30.3695 25.2422C30.2674 25.2163 30.1606 25.2162 30.0587 25.2422L27.648 25.8553C27.4353 25.9094 27.2099 25.8491 27.0527 25.696L25.2723 23.9616C25.1969 23.8881 25.1043 23.8347 25.0029 23.8062L22.6087 23.1338C22.3972 23.0744 22.2319 22.9092 22.1724 22.6977L21.4992 20.3076C21.4706 20.2061 21.417 20.1134 21.3432 20.0379L19.6072 18.2609C19.4536 18.1036 19.3929 17.8777 19.4473 17.6645L20.0609 15.2591C20.087 15.1569 20.087 15.0498 20.0609 14.9475L19.4473 12.5419C19.3929 12.3288 19.4536 12.1029 19.6072 11.9455L21.3433 10.1683C21.417 10.0929 21.4706 10.0002 21.4992 9.8987L22.1724 7.50862C22.2319 7.29714 22.3974 7.13202 22.6089 7.07252L25.003 6.40027C25.1044 6.37176 25.197 6.31835 25.2724 6.24483L27.0527 4.51051C27.2099 4.3574 27.4353 4.29702 27.648 4.35116L30.0587 4.96431C30.1605 4.9901 30.2674 4.9901 30.3695 4.96423Z" fill="#FF7258"/>
<path d="M14.3496 23.4305V31.9196C14.3496 32.4058 13.9559 32.8 13.4703 32.8H4.97892C4.49331 32.8 4.09961 32.4058 4.09961 31.9196V23.4305C4.09961 22.9443 4.49331 22.55 4.97892 22.55H13.4702C13.9558 22.55 14.3496 22.9441 14.3496 23.4305Z" fill="#EFEFEF"/>
<path d="M14.2097 23.3785V23.653L10.4073 27.4501L9.287 28.5694L5.48358 32.3676H5.20798C4.74149 32.3676 4.36328 31.9894 4.36328 31.5229V31.2484L8.16671 27.4513L9.287 26.332L13.0904 22.5338H13.3649C13.8314 22.5337 14.2097 22.9118 14.2097 23.3785Z" fill="#E2E2E2"/>
<path d="M14.2106 31.2473V31.5229C14.2106 31.9894 13.8324 32.3676 13.3659 32.3676H13.0914L9.28798 28.5694L8.16768 27.4512L4.36426 23.653V23.3785C4.36426 22.912 4.74246 22.5338 5.20895 22.5338H5.48455L9.28798 26.332L10.4083 27.4502L14.2106 31.2473Z" fill="#E2E2E2"/>
<path d="M30.6765 28.5029H17.1923C16.7548 28.5029 16.4004 28.1485 16.4004 27.711C16.4004 27.2735 16.7548 26.9191 17.1923 26.9191H30.6765C31.114 26.9191 31.4684 27.2735 31.4684 27.711C31.4684 28.1485 31.114 28.5029 30.6765 28.5029Z" fill="#E2E2E2"/>
<path d="M28.857 32.0395H17.0914C16.7097 32.0395 16.4004 31.7302 16.4004 31.3485C16.4004 30.9667 16.7097 30.6575 17.0914 30.6575H28.857C29.2387 30.6575 29.548 30.9667 29.548 31.3485C29.548 31.7302 29.2387 32.0395 28.857 32.0395Z" fill="#EFEFEF"/>
<path d="M29.33 12.2036C29.33 11.035 28.3795 10.0845 27.2109 10.0845C26.0423 10.0845 25.0918 11.035 25.0918 12.2036C25.0918 13.3721 26.0423 14.3227 27.2109 14.3227C28.3795 14.3227 29.33 13.3721 29.33 12.2036ZM26.4739 12.2036C26.4739 11.7972 26.8045 11.4665 27.2109 11.4665C27.6173 11.4665 27.9479 11.7972 27.9479 12.2036C27.9479 12.61 27.6173 12.9406 27.2109 12.9406C26.8045 12.9406 26.4739 12.61 26.4739 12.2036Z" fill="#EFEFEF"/>
<path d="M32.7392 16.5338C31.5706 16.5338 30.6201 17.4843 30.6201 18.6529C30.6201 19.8215 31.5706 20.772 32.7392 20.772C33.9078 20.772 34.8583 19.8215 34.8583 18.6529C34.8583 17.4843 33.9077 16.5338 32.7392 16.5338ZM32.7392 19.39C32.3328 19.39 32.0022 19.0594 32.0022 18.653C32.0022 18.2466 32.3328 17.916 32.7392 17.916C33.1456 17.916 33.4763 18.2466 33.4763 18.653C33.4763 19.0593 33.1456 19.39 32.7392 19.39Z" fill="#EFEFEF"/>
<path d="M33.8282 11.5753C33.5583 11.3055 33.1208 11.3055 32.8509 11.5753L26.1223 18.3039C25.8525 18.5738 25.8525 19.0113 26.1223 19.2811C26.2573 19.416 26.4342 19.4835 26.611 19.4835C26.7878 19.4835 26.9647 19.4161 27.0997 19.2811L33.8284 12.5525C34.0981 12.2826 34.0981 11.8451 33.8282 11.5753Z" fill="#EFEFEF"/>
</g>
</svg>
