<svg width="26" height="26" viewBox="0 0 26 26" fill="none" xmlns="http://www.w3.org/2000/svg">
<path d="M22.1 8.44998V21.45C22.1 23.3795 20.7795 24.7 18.85 24.7H4.55C2.62045 24.7 1.3 23.3795 1.3 21.45V7.14998C1.3 5.22043 2.62045 3.89998 4.55 3.89998H17.55C17.909 3.89998 18.2 3.60896 18.2 3.24998C18.2 2.89099 17.909 2.59998 17.55 2.59998H4.55C1.90248 2.59998 0 4.50246 0 7.14998V21.45C0 24.0975 1.90248 26 4.55 26H18.85C21.4975 26 23.4 24.0975 23.4 21.45V8.44998C23.4 8.09099 23.109 7.79998 22.75 7.79998C22.391 7.79998 22.1 8.09099 22.1 8.44998Z" fill="white" stroke="white" stroke-width="0.8"/>
<path fill-rule="evenodd" clip-rule="evenodd" d="M24.8895 0.191142L10.6313 14.4967C10.3779 14.751 10.3785 15.1625 10.6328 15.4159C10.8871 15.6694 11.2986 15.6687 11.552 15.4144L25.8103 1.10886C26.0637 0.854597 26.063 0.443041 25.8088 0.18962C25.5545 -0.0637999 25.143 -0.0631186 24.8895 0.191142Z" fill="white" stroke="white" stroke-width="0.8"/>
</svg>
