<svg width="14" height="23" viewBox="0 0 14 23" fill="none" xmlns="http://www.w3.org/2000/svg">
<path d="M11.9388 2.4H9.43333V1H4.83333V2.4H2.32787C1.5957 2.4 1 2.9439 1 3.6124V20.7876C1 21.4561 1.5957 22 2.32787 22H11.9388C12.671 22 13.2667 21.4561 13.2667 20.7876V3.6124C13.2667 2.9439 12.671 2.4 11.9388 2.4ZM2.32787 3.1H4.83333H9.43333H11.9388C12.2485 3.1 12.5 3.3296 12.5 3.6124V16.75H1.76667V3.6124C1.76667 3.3296 2.01813 3.1 2.32787 3.1ZM11.9388 21.3H2.32787C2.01813 21.3 1.76667 21.0704 1.76667 20.7876V17.45H12.5V20.7876C12.5 21.0704 12.2485 21.3 11.9388 21.3Z" fill="#1786EC" stroke="#1786EC" stroke-width="0.6"/>
</svg>
