<svg width="64" height="64" viewBox="0 0 64 64" fill="none" xmlns="http://www.w3.org/2000/svg">
<path d="M6.61914 38.4412H12.4359V36.2848H4.46289V59.0392H6.61914V38.4412Z" fill="#DCEDFD"/>
<path d="M39.7878 45.2106H38.2978C38.0993 45.2132 37.9098 45.2938 37.7704 45.4351C37.6309 45.5763 37.5527 45.7668 37.5527 45.9653C37.5527 46.1638 37.6309 46.3543 37.7704 46.4955C37.9098 46.6368 38.0993 46.7174 38.2978 46.72H41.758C41.7634 46.6607 41.767 46.6011 41.767 46.5405C41.7668 46.0422 41.5776 45.5626 41.2375 45.1985H39.9181C39.8744 45.1987 39.8308 45.2028 39.7878 45.2106Z" fill="#DCEDFD"/>
<path d="M38.2978 50.6737C38.0993 50.6763 37.9098 50.7569 37.7704 50.8981C37.6309 51.0394 37.5527 51.2299 37.5527 51.4284C37.5527 51.6269 37.6309 51.8174 37.7704 51.9586C37.9098 52.0999 38.0993 52.1805 38.2978 52.1831H41.7468C41.787 51.9137 41.7673 51.6388 41.6891 51.3779C41.611 51.1171 41.4763 50.8766 41.2946 50.6737H38.2978Z" fill="#DCEDFD"/>
<path d="M29.8896 40.1808C30.0223 40.8086 30.3668 41.3716 30.8655 41.7754C31.3641 42.1792 31.9865 42.3991 32.6281 42.3983H41.7096C41.7771 42.1436 41.7849 41.8768 41.7327 41.6185C41.6804 41.3603 41.5695 41.1176 41.4084 40.9091C41.2473 40.7006 41.0403 40.532 40.8036 40.4164C40.5669 40.3007 40.3067 40.241 40.0433 40.242H30.4718C30.2761 40.2419 30.081 40.2213 29.8896 40.1808Z" fill="#DCEDFD"/>
<path d="M16.1017 41.919H17.7197C18.8755 41.9172 20.0146 41.6426 21.0443 41.1175C22.074 40.5924 22.9652 39.8316 23.6454 38.8971C25.7813 35.9234 27.1856 32.4878 27.7441 28.8694L28.1398 26.2861C28.37 26.3265 28.5957 26.3888 28.8141 26.472C28.5851 25.8701 28.204 25.3379 27.7079 24.9274C27.2118 24.5169 26.6176 24.2421 25.9836 24.1299L25.5876 26.7131C25.0289 30.3315 23.6247 33.7672 21.4888 36.7409C20.8087 37.6753 19.9176 38.4359 18.888 38.961C17.8585 39.4861 16.7195 39.7607 15.5638 39.7626H13.9453L13.9679 41.919H16.1017Z" fill="#DCEDFD"/>
<path d="M40.0805 55.972H36.6497C36.5498 55.9707 36.4506 55.9893 36.3579 56.0266C36.2652 56.064 36.1809 56.1194 36.1098 56.1896C36.0386 56.2598 35.9822 56.3434 35.9436 56.4356C35.9051 56.5278 35.8853 56.6267 35.8853 56.7267C35.8853 56.8266 35.9051 56.9255 35.9436 57.0177C35.9822 57.1099 36.0386 57.1936 36.1098 57.2638C36.1809 57.334 36.2652 57.3894 36.3579 57.4267C36.4506 57.4641 36.5498 57.4826 36.6497 57.4814H40.5247C40.5668 57.2126 40.5488 56.9379 40.4721 56.6769C40.3953 56.4159 40.2617 56.1752 40.0808 55.972H40.0805Z" fill="#DCEDFD"/>
<path d="M51.5895 31.8019C51.8082 30.6489 52.4088 29.8038 53.2436 29.4001C52.8255 29.2317 52.3799 29.1416 51.9292 29.1345C50.4897 29.1345 49.4016 30.1565 49.0895 31.8019C48.577 34.4758 50.277 38.0519 55.2178 40.0681C55.6571 39.8851 56.0695 39.6899 56.4582 39.4849C52.4888 37.4125 51.1228 34.2341 51.5895 31.8019Z" fill="#DCEDFD"/>
<path d="M35.4146 18.5206C35.6334 17.3676 36.234 16.5225 37.0688 16.1189C36.6507 15.9504 36.2051 15.8604 35.7544 15.8533C34.3149 15.8533 33.2268 16.8753 32.9146 18.5206C32.4021 21.1945 34.1021 24.7706 39.043 26.7869C39.4823 26.6039 39.8946 26.4086 40.2834 26.2036C36.314 24.1313 34.948 20.9529 35.4146 18.5206Z" fill="#DCEDFD"/>
<path d="M51.5895 5.24843C51.8082 4.09543 52.4088 3.2503 53.2436 2.8468C52.8255 2.67828 52.3799 2.5882 51.9292 2.58105C50.4897 2.58105 49.4016 3.60318 49.0895 5.24843C48.577 7.9223 50.277 11.4984 55.2178 13.5147C55.6571 13.3318 56.0695 13.1364 56.4582 12.9314C52.4888 10.8592 51.1228 7.68068 51.5895 5.24843Z" fill="#DCEDFD"/>
<path d="M15.5699 5.24843C15.7887 4.09543 16.3893 3.2503 17.224 2.8468C16.8059 2.67827 16.3603 2.58818 15.9095 2.58105C14.4702 2.58105 13.382 3.60318 13.0699 5.24843C12.5574 7.9223 14.2574 11.4984 19.1983 13.5147C19.6375 13.3318 20.0498 13.1364 20.4387 12.9314C16.4693 10.8592 15.1033 7.68068 15.5699 5.24843Z" fill="#DCEDFD"/>
<path d="M43.4465 41.8939C43.4455 41.0016 43.0905 40.1461 42.4596 39.5151C41.8286 38.8841 40.9731 38.5292 40.0807 38.5282H30.461C30.17 38.5285 29.8892 38.4212 29.6726 38.2269C29.456 38.0326 29.3189 37.7651 29.2878 37.4758C29.1314 36.0283 29.3158 34.5643 29.826 33.2008C30.385 31.7155 30.6709 30.1414 30.6699 28.5544V27.6419C30.6683 26.2202 30.1028 24.8571 29.0975 23.8518C28.0922 22.8465 26.7291 22.281 25.3074 22.2794C25.0983 22.2794 24.8961 22.3543 24.7374 22.4905C24.5788 22.6267 24.4742 22.8152 24.4425 23.0219L23.9375 26.3172C23.4159 29.6975 22.1044 32.9072 20.1094 35.6855C19.5775 36.4158 18.8808 37.0102 18.0759 37.4204C17.271 37.8307 16.3807 38.0452 15.4773 38.0465H13.9677V35.426C13.9677 35.194 13.8756 34.9714 13.7115 34.8073C13.5474 34.6432 13.3248 34.551 13.0927 34.551H3.5625C3.33044 34.551 3.10788 34.6432 2.94378 34.8073C2.77969 34.9714 2.6875 35.194 2.6875 35.426V59.8125C2.6875 60.0446 2.77969 60.2672 2.94378 60.4313C3.10788 60.5954 3.33044 60.6875 3.5625 60.6875H13.0927C13.3248 60.6875 13.5474 60.5954 13.7115 60.4313C13.8756 60.2672 13.9677 60.0446 13.9677 59.8125V57.5937H15.292C17.8932 57.5931 20.4429 58.3197 22.653 59.6914C25.1809 61.2598 28.0138 61.3897 30.9365 61.3897H38.6944C39.353 61.3902 39.9985 61.2061 40.5578 60.8583C41.117 60.5105 41.5676 60.0129 41.8584 59.422C42.1492 58.8311 42.2685 58.1705 42.2029 57.5152C42.1372 56.8599 41.8892 56.2362 41.487 55.7147C42.0098 55.4546 42.46 55.0691 42.7974 54.5925C43.1348 54.1159 43.3487 53.5631 43.4202 52.9836C43.4916 52.404 43.4183 51.8158 43.2068 51.2715C42.9953 50.7273 42.6523 50.2439 42.2082 49.8647C42.5931 49.5289 42.9024 49.1154 43.1158 48.6515C43.3293 48.1875 43.4419 47.6835 43.4463 47.1728C43.4508 46.6621 43.3469 46.1563 43.1416 45.6886C42.9363 45.221 42.6342 44.8022 42.2552 44.4598C42.6285 44.1445 42.9284 43.7515 43.1342 43.3084C43.3399 42.8652 43.4465 42.3825 43.4465 41.8939ZM12.2177 58.9375H4.4375V36.301H12.2177V58.9375ZM39.909 50.7625C40.3831 50.7625 40.8377 50.9509 41.173 51.2861C41.5082 51.6213 41.6965 52.076 41.6965 52.55C41.6965 53.0241 41.5082 53.4788 41.173 53.814C40.8377 54.1492 40.3831 54.3376 39.909 54.3376H34.5026C34.2706 54.3376 34.048 54.4297 33.8839 54.5938C33.7198 54.7579 33.6276 54.9805 33.6276 55.2126C33.6276 55.4446 33.7198 55.6672 33.8839 55.8313C34.048 55.9954 34.2706 56.0876 34.5026 56.0876H38.6944C39.1628 56.0915 39.6108 56.2803 39.9406 56.613C40.2705 56.9456 40.4556 57.3951 40.4556 57.8636C40.4556 58.3321 40.2705 58.7816 39.9406 59.1142C39.6108 59.4469 39.1628 59.6357 38.6944 59.6397H30.9365C28.2766 59.6397 25.7115 59.5299 23.5755 58.2044C21.0884 56.6607 18.2193 55.843 15.292 55.8437H13.9677V39.7965H15.4775C16.6576 39.7946 17.8206 39.5142 18.8718 38.978C19.9231 38.4419 20.833 37.6651 21.5275 36.711C23.6849 33.7074 25.1032 30.2371 25.6672 26.5822L26.0467 24.1055C26.8584 24.2765 27.5866 24.7211 28.1096 25.3648C28.6326 26.0086 28.9186 26.8125 28.9196 27.6419V28.5544C28.9205 29.9313 28.6725 31.2969 28.1876 32.5855C27.5811 34.2059 27.362 35.9456 27.5478 37.6658C27.6252 38.3839 27.9655 39.0481 28.5032 39.5304C29.0409 40.0127 29.7379 40.2791 30.4603 40.2783H40.08C40.5061 40.282 40.9134 40.4539 41.2134 40.7565C41.5134 41.0592 41.6817 41.468 41.6817 41.8941C41.6817 42.3202 41.5134 42.7291 41.2134 43.0317C40.9134 43.3343 40.5061 43.5062 40.08 43.5099H37.7875C37.7409 43.5104 37.6943 43.5146 37.6484 43.5224H36.1591C35.9271 43.5224 35.7045 43.6146 35.5404 43.7787C35.3763 43.9428 35.2841 44.1654 35.2841 44.3974C35.2841 44.6295 35.3763 44.852 35.5404 45.0161C35.7045 45.1802 35.9271 45.2724 36.1591 45.2724H39.8261C40.3222 45.2724 40.7979 45.4695 41.1487 45.8202C41.4994 46.171 41.6965 46.6467 41.6965 47.1428C41.6965 47.6389 41.4994 48.1146 41.1487 48.4654C40.7979 48.8161 40.3222 49.0132 39.8261 49.0132H36.1591C35.9271 49.0132 35.7045 49.1054 35.5404 49.2695C35.3763 49.4335 35.2841 49.6561 35.2841 49.8882C35.2841 50.1202 35.3763 50.3428 35.5404 50.5069C35.7045 50.671 35.9271 50.7632 36.1591 50.7632L39.909 50.7625Z" fill="#116FFF"/>
<path d="M63.0668 4.89583C62.571 2.43821 60.7749 0.849956 58.492 0.849956C57.4394 0.849956 56.3208 1.20833 55.2272 1.89183C54.1207 1.17646 53.0135 0.814331 51.9293 0.814331C49.6312 0.814331 47.8418 2.42021 47.3705 4.90371C46.717 8.30996 48.7358 12.8096 54.7189 15.1836C54.7342 15.1897 54.7497 15.1952 54.7653 15.2005C55.0586 15.3076 55.3804 15.3076 55.6738 15.2005C55.6913 15.1946 55.7088 15.188 55.726 15.1812C61.7059 12.7585 63.7224 8.27271 63.0682 4.90183L63.0668 4.89583ZM55.2179 13.4982C50.2773 11.4818 48.5765 7.90583 49.0895 5.23183C49.402 3.58658 50.4895 2.56458 51.9293 2.56458C52.7843 2.56458 53.7418 2.94121 54.6963 3.65371C54.8459 3.76535 55.0273 3.82623 55.2139 3.82744C55.4006 3.82866 55.5827 3.77014 55.7338 3.66046C56.6894 2.96683 57.6433 2.60021 58.4923 2.60021C59.9264 2.60021 61.0217 3.61121 61.3512 5.23896C61.8613 7.87908 60.1587 11.4401 55.2179 13.4982Z" fill="#2CD696"/>
<path d="M38.6593 28.5664C38.9531 28.6741 39.2757 28.6741 39.5695 28.5664C39.5868 28.5607 39.6039 28.5539 39.6209 28.5475C45.6004 26.125 47.6174 21.639 46.9629 18.2682L46.9615 18.2619C46.4659 15.8043 44.67 14.2163 42.3865 14.2163C41.334 14.2163 40.2154 14.5748 39.1216 15.2582C38.015 14.5428 36.908 14.1807 35.8238 14.1807C33.5255 14.1807 31.7363 15.7865 31.265 18.27C30.6116 21.6763 32.6303 26.1759 38.6133 28.5498C38.6288 28.5558 38.6439 28.5613 38.6593 28.5664ZM32.9843 18.5979C33.2968 16.9528 34.3843 15.9307 35.8239 15.9307C36.679 15.9307 37.6364 16.3073 38.5909 17.0198C38.7404 17.1315 38.9218 17.1925 39.1085 17.1937C39.2952 17.1949 39.4774 17.1363 39.6284 17.0265C40.5843 16.3329 41.5383 15.9663 42.3871 15.9663C43.8211 15.9663 44.9164 16.9773 45.2459 18.605C45.7563 21.2452 44.0535 24.8062 39.1129 26.8643C34.1723 24.848 32.4716 21.2719 32.9846 18.5979H32.9843Z" fill="#2CD696"/>
<path d="M27.0471 4.89583C26.5514 2.43821 24.7556 0.849956 22.4724 0.849956C21.4198 0.849956 20.3012 1.20833 19.2076 1.89183C18.1011 1.17646 16.994 0.814331 15.9096 0.814331C13.6115 0.814331 11.8221 2.42021 11.351 4.90371C10.6975 8.30996 12.7161 12.8096 18.6994 15.1836C18.7146 15.1897 18.7301 15.1952 18.7458 15.2005C19.0391 15.3076 19.3608 15.3076 19.6541 15.2005C19.6718 15.1946 19.6892 15.188 19.7064 15.1812C25.6863 12.7585 27.7027 8.27271 27.0485 4.90183L27.0471 4.89583ZM19.1984 13.4982C14.2578 11.4818 12.557 7.90583 13.07 5.23183C13.3825 3.58658 14.47 2.56458 15.9096 2.56458C16.7648 2.56458 17.7221 2.94121 18.6768 3.65371C18.8263 3.76535 19.0077 3.82623 19.1944 3.82744C19.3811 3.82866 19.5632 3.77014 19.7143 3.66046C20.6698 2.96683 21.6236 2.60021 22.4726 2.60021C23.9068 2.60021 25.002 3.61121 25.3314 5.23896C25.8415 7.87908 24.1389 11.4401 19.1984 13.4982Z" fill="#2CD696"/>
<path d="M63.0665 31.4658C62.5708 29.0081 60.775 27.4201 58.4915 27.4201C57.4389 27.4201 56.3203 27.7786 55.2267 28.462C54.1202 27.7466 53.013 27.3845 51.9288 27.3845C49.6307 27.3845 47.8413 28.9904 47.37 31.4739C46.7165 34.8801 48.7353 39.3798 54.7184 41.7536C54.7334 41.7596 54.7485 41.7651 54.7639 41.7703C55.0577 41.8779 55.3802 41.8779 55.674 41.7703C55.6914 41.7645 55.7085 41.7578 55.7255 41.7514C61.7054 39.3286 63.7219 34.8429 63.0677 31.472L63.0665 31.4658ZM55.2177 40.0681C50.277 38.0518 48.5763 34.4758 49.0893 31.8019C49.4018 30.1565 50.4893 29.1345 51.929 29.1345C52.784 29.1345 53.7415 29.5111 54.696 30.2236C54.8456 30.3353 55.027 30.3962 55.2137 30.3974C55.4003 30.3986 55.5825 30.3401 55.7335 30.2304C56.6892 29.5368 57.643 29.1701 58.492 29.1701C59.9262 29.1701 61.0214 30.1811 61.3509 31.8089C61.861 34.449 60.1583 38.01 55.2177 40.0681Z" fill="#2CD696"/>
</svg>
