<svg width="24" height="20" viewBox="0 0 24 20" fill="none" xmlns="http://www.w3.org/2000/svg">
<path d="M12.8433 4.29426V3.41528H12.7643H12.4561V4.29426H12.7643H12.8433Z" fill="#2691F4"/>
<path d="M11.8192 1.89941H11.4014V2.7784H11.8192V1.89941Z" fill="#2691F4"/>
<path d="M11.2361 6.17965H12.7648H17.147C17.8501 6.17965 18.4208 5.60895 18.4208 4.90576V1.34908C18.4208 0.645895 17.8501 0.0751953 17.147 0.0751953H6.85396C6.15078 0.0751953 5.58008 0.645895 5.58008 1.34908V4.90576C5.58008 5.60895 6.15078 6.17965 6.85396 6.17965H11.2361ZM10.7648 1.58093C10.7648 1.40513 10.9075 1.26246 11.0833 1.26246H11.8196V0.852265C11.8196 0.676469 11.9622 0.533794 12.138 0.533794C12.3138 0.533794 12.4565 0.676469 12.4565 0.852265V1.26246H13.0833C13.2591 1.26246 13.4017 1.40513 13.4017 1.58093C13.4017 1.75672 13.2591 1.8994 13.0833 1.8994H12.4565V2.77838H13.1597C13.3355 2.77838 13.4782 2.92105 13.4782 3.09685V4.61277C13.4782 4.78857 13.3355 4.93124 13.1597 4.93124H12.7648H12.4565V5.34398C12.4565 5.51978 12.3138 5.66245 12.138 5.66245C11.9622 5.66245 11.8196 5.51978 11.8196 5.34398V4.93124H11.2361H11.1189C10.9431 4.93124 10.8005 4.78857 10.8005 4.61277C10.8005 4.43697 10.9431 4.2943 11.1189 4.2943H11.2361H11.8196V3.41532H11.2361H11.0833C10.9075 3.41532 10.7648 3.27264 10.7648 3.09685V1.58093Z" fill="#2691F4"/>
<path d="M19.7965 13.9274V12.4853C19.7965 10.7121 18.3519 9.26754 16.5786 9.26754H12.7646V6.94397H11.2359V9.26754H7.42194C5.64869 9.26754 4.2041 10.7121 4.2041 12.4853V13.9274H5.73276V12.4853C5.73276 11.5529 6.48945 10.7962 7.42194 10.7962H16.5786C17.5111 10.7962 18.2678 11.5529 18.2678 12.4853V13.9274H19.7965Z" fill="#2691F4"/>
<path d="M8.66242 14.6918H5.73248H4.20382H1.27389C0.570701 14.6918 0 15.2625 0 15.9657V18.651C0 19.3542 0.570701 19.9249 1.27389 19.9249H8.66242C9.36561 19.9249 9.93631 19.3542 9.93631 18.651V15.9657C9.93631 15.2625 9.36561 14.6918 8.66242 14.6918Z" fill="#2691F4"/>
<path d="M22.7259 14.6918H19.796H18.2673H15.3374C14.6342 14.6918 14.0635 15.2625 14.0635 15.9657V18.651C14.0635 19.3542 14.6342 19.9249 15.3374 19.9249H22.7259C23.4291 19.9249 23.9998 19.3542 23.9998 18.651V15.9657C23.9998 15.2625 23.4291 14.6918 22.7259 14.6918Z" fill="#2691F4"/>
</svg>
