<svg width="42" height="42" viewBox="0 0 42 42" fill="none" xmlns="http://www.w3.org/2000/svg">
<g>
<path d="M34.7499 27.2768C34.7506 26.9596 34.663 26.6491 34.4965 26.379L32.882 23.78C32.6808 23.3804 32.5766 22.9388 32.578 22.4914V14.4844C32.578 9.28631 28.3645 5.07288 23.1665 5.07288H18.8227C13.6246 5.07288 9.4112 9.28631 9.4112 14.4844V22.4914C9.41267 22.9388 9.30841 23.3805 9.10711 23.78L7.49266 26.379C7.32613 26.6491 7.23852 26.9596 7.23926 27.2768C7.24287 28.2071 7.99583 28.9599 8.92606 28.9636H33.0629C33.9933 28.9599 34.7463 28.207 34.7499 27.2768Z" fill="#88B337"/>
<path d="M23.1667 5.07283L26.7865 0.00512695H15.2031L18.8229 5.07283V6.52076H23.1667V5.07283Z" fill="#88B337"/>
<path d="M34.4964 26.379L32.8819 23.78C32.6807 23.3803 32.5764 22.9388 32.5778 22.4914V14.4843C32.5829 12.3877 31.8872 10.3491 30.6015 8.69263C28.6685 19.3421 21.8633 25.4813 15.4707 28.9635H33.063C33.9983 28.9671 34.7599 28.212 34.7635 27.276C34.765 26.9589 34.6774 26.6483 34.5109 26.379H34.4964Z" fill="#6B962A"/>
<path d="M24.6148 15.9323V15.469C24.6112 14.1274 23.5238 13.0401 22.1823 13.0364H21.7189V11.5885H20.271V13.0364H19.8077C18.464 13.0321 17.3716 14.1173 17.3672 15.4609C17.3636 16.481 17.997 17.3946 18.9534 17.7494L20.271 18.2416V20.9999H19.8077C19.264 20.9999 18.8231 20.559 18.8231 20.0153V19.552H17.3752V20.0153C17.3788 21.3568 18.4662 22.4441 19.8077 22.4478H22.1823C23.526 22.4522 24.6185 21.367 24.6228 20.0233C24.6264 19.0033 23.993 18.0896 23.0366 17.7349L21.719 17.2426V14.4844H22.1823C22.726 14.4844 23.167 14.9253 23.167 15.469V15.9323H24.6148ZM22.5298 19.0888C22.9121 19.2371 23.1647 19.605 23.1669 20.0155C23.1669 20.5592 22.726 21.0001 22.1823 21.0001H21.7189V18.7847L22.5298 19.0888ZM20.2711 16.6997L19.4602 16.3956C19.078 16.2472 18.8253 15.8794 18.8232 15.4689C18.8232 14.9252 19.2641 14.4843 19.8078 14.4843H20.2711V16.6997Z" fill="white"/>
<path d="M35.474 7.24472C35.2278 5.75913 34.0637 4.59503 32.5781 4.34886C34.0637 4.10268 35.2278 2.93858 35.474 1.453C35.7202 2.93858 36.8843 4.10268 38.3698 4.34886C36.8843 4.59503 35.7202 5.75922 35.474 7.24472Z" fill="#FFC846"/>
<path d="M2.89586 21.7239C2.64968 20.2384 1.48558 19.0742 0 18.8281C1.48558 18.5819 2.64968 17.4178 2.89586 15.9323C3.14203 17.4178 4.30613 18.5819 5.79171 18.8281C4.30613 19.0742 3.14195 20.2384 2.89586 21.7239Z" fill="#FFC846"/>
<path d="M41.6787 25.2641C41.0843 24.2636 39.8073 23.9096 38.7829 24.4605L28.5099 28.8477C28.3289 28.9244 28.1342 28.9643 27.938 28.9635H15.2035C14.4035 28.9635 13.7555 28.3156 13.7555 27.5156C13.7555 26.7156 14.4035 26.0677 15.2035 26.0677H20.9952C23.3944 26.0677 25.339 24.1231 25.339 21.7239H13.2922C11.2955 21.7254 9.40748 22.6339 8.15938 24.1926L3.62012 29.6874L8.7313 39.0555L28.4013 34.328C29.2513 34.1318 30.0737 33.8307 30.8483 33.4303L40.9837 28.2394C41.9922 27.6061 42.3021 26.2791 41.6787 25.2641Z" fill="#FEC9A3"/>
<path d="M7.10254 36.0728L8.73143 39.0555L28.4015 34.3281C29.2514 34.1319 30.0738 33.8307 30.8484 33.4303L36.3288 30.6141C27.2214 33.4014 15.1312 35.1389 7.10254 36.0728Z" fill="#F7BB8F"/>
<path d="M0 28.9636V41.9949H9.41149L11.5833 39.823L2.89586 26.7917L0 28.9636Z" fill="#2691F4"/>
<path d="M0 41.9949H9.41149L11.5833 39.823L9.99063 37.434C6.7705 38.7631 3.4229 39.76 0 40.4095V41.9949Z" fill="#177CD9"/>
<path d="M6.51531 39.8251C7.31498 39.8251 7.96324 39.1768 7.96324 38.3771C7.96324 37.5775 7.31498 36.9292 6.51531 36.9292C5.71564 36.9292 5.06738 37.5775 5.06738 38.3771C5.06738 39.1768 5.71564 39.8251 6.51531 39.8251Z" fill="#D9D9D9"/>
</g>
</svg>
